<svg width="288" height="280" viewBox="0 0 288 280" fill="none" xmlns="http://www.w3.org/2000/svg">
<path d="M150.509 74.9879C150.449 78.7213 146.708 81.3873 147.979 78.6872C151.279 71.6841 139.665 59.4757 141.404 64.4915C143.14 69.5072 137.503 73.2396 139.825 78.0229C140.444 79.2975 137.438 78.035 137.105 74.1661C136.859 71.3293 133.096 80.2251 134.794 85.4226C136.491 90.6202 139.835 91.3593 139.825 90.3282C139.737 81.5779 143.762 77.2066 143.519 81.3223C143.349 84.1899 145.628 91.1776 147.41 89.9239C155.894 84.9434 150.567 71.2555 150.509 74.989V74.9879Z" fill="#ED7225"/>
<path d="M152.773 93.5447H152.638C151.866 93.5447 151.234 94.176 151.234 94.9482V95.1686C151.234 95.9408 150.602 96.572 149.831 96.572H149.61C148.839 96.572 148.207 95.9397 148.207 95.1686V94.9482C148.207 94.176 147.576 93.5447 146.803 93.5447H146.583C145.812 93.5447 145.18 94.176 145.18 94.9482V95.1686C145.18 95.9408 144.547 96.572 143.776 96.572H143.556C142.785 96.572 142.152 95.9397 142.152 95.1686V94.9482C142.152 94.176 141.52 93.5447 140.749 93.5447H140.528C139.756 93.5447 139.125 94.176 139.125 94.9482V95.1686C139.125 95.9408 138.494 96.572 137.721 96.572H137.501C136.73 96.572 136.098 95.9397 136.098 95.1686V94.9482C136.098 94.176 135.465 93.5447 134.694 93.5447H133.821C133.048 93.5447 132.561 94.1594 132.738 94.9119L133.515 98.2333C133.692 98.9846 134.466 99.6005 135.238 99.6005H151.358C152.13 99.6005 152.904 98.9857 153.08 98.2333L153.858 94.9119C154.035 94.1605 153.548 93.5447 152.775 93.5447H152.773Z" fill="#282A8B"/>
<path d="M151.731 105.239C151.907 104.487 151.419 103.873 150.648 103.873H135.945C135.173 103.873 134.686 104.487 134.862 105.239L139.886 129.493H146.714C146.714 129.493 148.359 120.896 151.731 105.239Z" fill="#282A8B"/>
<path fill-rule="evenodd" clip-rule="evenodd" d="M171.415 188.873C171.414 188.021 171.164 187.157 170.61 186.444L166.165 180.757C165.42 179.811 164.288 179.33 163.155 179.329C162.482 179.329 161.796 179.502 161.19 179.88L156.855 182.577C156.399 182.867 155.618 183.067 154.863 183.062C154.277 183.065 153.711 182.948 153.336 182.763L149.092 180.707C148.407 180.378 147.644 180.242 146.876 180.241C145.773 180.247 144.657 180.518 143.761 181.139L143.265 181.486C142.87 181.288 142.264 180.987 141.578 180.647C140.757 180.243 139.79 180.081 138.814 180.078C137.933 180.08 137.052 180.217 136.277 180.543L133.387 181.777C132.916 181.981 132.168 182.114 131.425 182.111C130.681 182.114 129.934 181.981 129.464 181.777L126.57 180.543C126.042 180.318 125.478 180.221 124.918 180.221C124.275 180.221 123.635 180.349 123.04 180.589C122.446 180.832 121.894 181.189 121.455 181.68L116.187 187.58C115.603 188.232 115.313 189.053 115.313 189.862C115.312 190.826 115.724 191.792 116.521 192.47L121.435 196.663L119.104 199.095C118.462 199.765 118.141 200.635 118.141 201.494C118.14 202.409 118.503 203.333 119.223 204.012L119.695 204.462C120.142 204.885 120.677 205.154 121.237 205.297C120.956 205.814 120.803 206.38 120.804 206.948C120.803 207.864 121.166 208.787 121.884 209.468L121.883 209.467L122.358 209.918C123.033 210.558 123.908 210.877 124.771 210.877C125.233 210.877 125.698 210.784 126.135 210.601C126.288 211.223 126.604 211.813 127.101 212.285L127.575 212.736C128.251 213.376 129.124 213.695 129.988 213.695C130.663 213.696 131.341 213.496 131.925 213.11C132.095 213.659 132.389 214.18 132.834 214.603L133.308 215.055C133.981 215.695 134.857 216.014 135.72 216.014C136.639 216.014 137.566 215.653 138.251 214.938L140.312 212.787L143.111 215.378C143.781 215.999 144.641 216.309 145.489 216.307C146.421 216.309 147.363 215.935 148.049 215.201L148.497 214.721C148.882 214.307 149.133 213.817 149.28 213.305L150.364 214.306C151.035 214.925 151.894 215.233 152.742 215.233C153.677 215.234 154.62 214.859 155.307 214.124L155.751 213.646C156.264 213.098 156.553 212.419 156.642 211.726C156.929 211.8 157.218 211.848 157.511 211.848C158.446 211.848 159.386 211.475 160.074 210.74L160.52 210.262C161.142 209.594 161.452 208.738 161.451 207.895C161.451 207.632 161.413 207.372 161.355 207.115C162.129 207.012 162.881 206.666 163.451 206.053L163.899 205.574C164.521 204.907 164.83 204.051 164.83 203.206C164.831 202.277 164.456 201.339 163.717 200.656L162.881 199.883L170.424 191.544C171.101 190.794 171.413 189.826 171.414 188.876L171.415 188.873ZM122.11 203.521C121.71 203.52 121.32 203.377 121.014 203.088L120.54 202.639C120.213 202.329 120.051 201.916 120.05 201.493C120.051 201.096 120.193 200.709 120.486 200.403L125.261 195.421C125.572 195.097 125.987 194.934 126.413 194.933C126.811 194.934 127.201 195.077 127.508 195.367L127.98 195.817C127.98 195.817 128.468 196.54 128.469 196.963C128.468 197.28 128.372 197.59 128.186 197.857C128.17 197.874 123.032 203.228 123.032 203.228C122.759 203.421 122.436 203.52 122.108 203.522L122.11 203.521ZM125.923 208.49C125.612 208.813 125.198 208.975 124.773 208.976C124.373 208.976 123.984 208.832 123.678 208.543L123.203 208.093L123.202 208.092C122.877 207.783 122.714 207.369 122.714 206.946C122.714 206.548 122.857 206.161 123.148 205.855C123.148 205.855 129.513 199.23 129.566 199.166C129.87 198.873 130.262 198.722 130.667 198.721C131.067 198.722 131.457 198.864 131.763 199.155L132.238 199.606C132.564 199.914 132.726 200.327 132.727 200.751C132.726 201.148 132.582 201.537 132.29 201.842L125.923 208.488V208.49ZM131.139 211.307C130.83 211.631 130.415 211.793 129.989 211.795C129.589 211.794 129.199 211.651 128.893 211.361L128.417 210.911C128.091 210.601 127.928 210.188 127.928 209.765C127.928 209.41 128.048 209.068 128.279 208.781L132.712 204.156C133.011 203.886 133.385 203.744 133.774 203.744C134.174 203.745 134.563 203.887 134.869 204.178L135.345 204.628C135.67 204.937 135.833 205.35 135.834 205.773C135.833 206.17 135.688 206.559 135.398 206.863L131.138 211.308L131.139 211.307ZM139.561 210.819L136.872 213.626C136.563 213.95 136.147 214.112 135.722 214.113C135.322 214.112 134.932 213.969 134.626 213.679L134.152 213.229C133.827 212.92 133.664 212.506 133.663 212.083C133.664 211.685 133.807 211.297 134.099 210.993L136.788 208.186C137.099 207.863 137.514 207.701 137.941 207.7C138.338 207.701 138.73 207.843 139.036 208.134L139.512 208.584C139.837 208.893 139.999 209.306 140 209.729C139.998 210.126 139.855 210.514 139.563 210.819H139.561ZM162.926 203.205C162.926 203.595 162.786 203.977 162.503 204.28L162.058 204.758C161.747 205.091 161.325 205.259 160.892 205.259C160.5 205.259 160.117 205.121 159.812 204.84L152.302 197.895L151.003 199.285L159.04 206.731C159.375 207.041 159.543 207.462 159.546 207.891C159.544 208.283 159.405 208.665 159.123 208.968L158.678 209.446C158.367 209.778 157.945 209.946 157.514 209.948C157.121 209.947 156.736 209.808 156.434 209.528L148.923 202.584L147.625 203.974L154.291 210.139C154.613 210.446 154.777 210.857 154.777 211.277C154.777 211.667 154.638 212.049 154.356 212.352L153.911 212.83C153.602 213.163 153.179 213.331 152.745 213.332C152.351 213.331 151.968 213.192 151.664 212.912L145.011 206.771H145.01L145.009 206.77L143.714 208.162L143.716 208.163L143.74 208.186L147.072 211.261C147.368 211.565 147.521 211.953 147.522 212.356C147.521 212.744 147.383 213.124 147.101 213.427L146.655 213.906C146.344 214.239 145.923 214.406 145.491 214.407C145.099 214.406 144.716 214.269 144.412 213.988L141.511 211.301C141.763 210.806 141.904 210.269 141.904 209.729C141.906 208.814 141.542 207.891 140.824 207.21L140.348 206.759C139.675 206.12 138.8 205.8 137.937 205.801C137.87 205.801 137.803 205.817 137.738 205.82C137.738 205.804 137.742 205.787 137.742 205.772C137.744 204.857 136.662 203.252 136.662 203.252L136.188 202.802C135.684 202.324 135.069 202.025 134.429 201.906C134.561 201.533 134.636 201.144 134.636 200.754C134.636 199.839 134.273 198.915 133.555 198.235L133.081 197.784C132.406 197.144 131.533 196.824 130.67 196.825C130.569 196.825 130.469 196.846 130.369 196.855C130.342 195.976 129.988 195.099 129.3 194.445V194.443L128.827 193.994C128.152 193.354 127.278 193.033 126.415 193.034C125.496 193.033 124.569 193.395 123.884 194.11L122.757 195.285L117.764 191.027C117.405 190.72 117.227 190.296 117.226 189.86C117.227 189.494 117.351 189.137 117.617 188.839L122.885 182.939C123.094 182.704 123.402 182.492 123.765 182.345C124.127 182.199 124.538 182.117 124.923 182.117C125.258 182.117 125.572 182.178 125.823 182.287L128.716 183.521C129.531 183.864 130.477 184.005 131.429 184.009C132.382 184.005 133.327 183.864 134.142 183.521L137.033 182.287C137.478 182.093 138.151 181.972 138.82 181.975C139.559 181.971 140.3 182.124 140.73 182.343C141.003 182.479 141.261 182.607 141.501 182.729L138.553 184.801C137.606 185.467 137.096 186.527 137.097 187.596C137.096 188.303 137.319 189.023 137.777 189.635L137.776 189.634L138.166 190.157C138.905 191.141 140.058 191.645 141.21 191.649C141.862 191.649 142.525 191.483 143.115 191.13L144.878 190.071C145.237 189.851 145.78 189.712 146.342 189.714C147.002 189.71 147.666 189.906 148.066 190.2L152.944 193.697C154.029 194.474 155.798 195.916 156.778 196.824L162.424 202.045C162.757 202.354 162.926 202.774 162.927 203.204L162.926 203.205ZM169.009 190.272L161.487 198.589L158.072 195.432C157.002 194.445 155.239 193.005 154.056 192.154L149.179 188.658C148.352 188.072 147.34 187.819 146.339 187.815C145.487 187.817 144.629 188.003 143.889 188.444L142.126 189.503C141.856 189.666 141.537 189.748 141.206 189.748C140.614 189.751 140.023 189.474 139.692 189.025L139.304 188.502L139.302 188.501C139.096 188.223 138.999 187.91 138.998 187.593C139.001 187.115 139.221 186.652 139.648 186.35L144.861 182.687C145.312 182.361 146.114 182.132 146.876 182.137C147.405 182.135 147.911 182.241 148.257 182.412L152.501 184.468C153.225 184.815 154.041 184.957 154.863 184.959C155.918 184.954 156.986 184.725 157.865 184.185L162.2 181.488C162.476 181.315 162.809 181.226 163.155 181.226C163.74 181.225 164.326 181.489 164.659 181.922L169.104 187.61C169.361 187.936 169.508 188.395 169.508 188.871C169.509 189.403 169.321 189.928 169.007 190.27L169.009 190.272Z" fill="#282A8B"/>
<path fill-rule="evenodd" clip-rule="evenodd" d="M187.219 102.107C187.164 101.935 187.015 101.81 186.838 101.785L181.835 101.058L179.599 96.5259C179.519 96.365 179.354 96.2626 179.175 96.2626C178.995 96.2626 178.83 96.365 178.751 96.5259L176.514 101.058L171.513 101.785C171.334 101.812 171.187 101.936 171.132 102.107C171.077 102.278 171.123 102.466 171.252 102.591L174.871 106.119L174.017 111.101C173.986 111.278 174.059 111.457 174.204 111.563C174.287 111.623 174.384 111.654 174.482 111.654C174.557 111.654 174.633 111.636 174.702 111.6L179.176 109.248L183.65 111.6C183.808 111.683 184.002 111.669 184.147 111.563C184.293 111.457 184.366 111.278 184.335 111.101L183.48 106.119L187.1 102.591C187.229 102.466 187.275 102.278 187.219 102.107Z" fill="#282A8B"/>
<path fill-rule="evenodd" clip-rule="evenodd" d="M115.866 102.106C115.811 101.934 115.663 101.81 115.485 101.785L110.483 101.057L108.246 96.5253C108.167 96.3645 108.002 96.262 107.822 96.262C107.643 96.262 107.477 96.3645 107.398 96.5253L105.162 101.057L100.159 101.785C99.9818 101.811 99.8331 101.935 99.778 102.106C99.723 102.277 99.7681 102.465 99.8981 102.591L103.517 106.118L102.662 111.1C102.631 111.277 102.705 111.457 102.851 111.563C102.933 111.622 103.03 111.653 103.128 111.653C103.203 111.653 103.279 111.635 103.348 111.599L107.822 109.247L112.296 111.599C112.455 111.683 112.648 111.668 112.794 111.563C112.939 111.457 113.012 111.277 112.981 111.1L112.126 106.118L115.745 102.591C115.874 102.465 115.92 102.277 115.865 102.106H115.866Z" fill="#282A8B"/>
<path fill-rule="evenodd" clip-rule="evenodd" d="M162.619 280C162.619 280 147.153 261.281 111.066 255.209C75.9384 247.064 33.434 212.977 22.5312 165.126C9.90011 117.725 31.1579 68.1666 58.3316 45.0023C85.324 20.673 110.622 16.8925 110.111 16.5643C110.721 17.2901 85.6384 21.6253 59.3335 46.0562C32.8052 69.3593 12.6163 118.267 25.4195 164.403C36.5465 210.991 78.1597 243.623 112.147 251.205C120.29 252.45 127.549 254.387 133.908 256.642C157.893 265.096 167.117 276.009 167.117 276.009L162.619 280Z" fill="#282A8B"/>
<path fill-rule="evenodd" clip-rule="evenodd" d="M124.81 280C124.81 280 140.275 261.281 176.361 255.209C211.489 247.064 253.993 212.977 264.896 165.126C277.527 117.725 256.268 68.1666 229.096 45.0023C202.104 20.673 176.805 16.8925 177.32 16.5643C176.711 17.2901 201.793 21.6253 228.094 46.0562C254.623 69.3593 274.816 118.267 262.007 164.403C250.884 210.991 209.268 243.623 175.281 251.205C167.137 252.45 159.878 254.387 153.519 256.642C129.533 265.096 120.309 276.009 120.309 276.009L124.81 280Z" fill="#282A8B"/>
<path fill-rule="evenodd" clip-rule="evenodd" d="M100.659 225.594C100.659 225.594 110.496 228.955 113.758 236.757C117.833 246.503 116.072 254.662 116.072 254.662C116.072 254.662 106.216 249.569 102.915 244.284C98.2806 236.867 100.659 225.594 100.659 225.594Z" fill="#282A8B"/>
<path fill-rule="evenodd" clip-rule="evenodd" d="M83.3975 268.41C83.3975 268.41 93.3413 271.444 100.6 267.044C109.663 261.547 113.066 253.919 113.066 253.919C113.066 253.919 102.079 252.274 96.2844 254.616C88.1452 257.906 83.3975 268.41 83.3975 268.41Z" fill="#282A8B"/>
<path fill-rule="evenodd" clip-rule="evenodd" d="M85.3475 217.192C85.3475 217.192 94.269 222.102 96.0801 230.181C98.3442 240.276 95.2476 247.854 95.2476 247.854C95.2476 247.854 86.6052 241.272 84.3262 235.614C81.1226 227.668 85.3475 217.192 85.3475 217.192Z" fill="#282A8B"/>
<path fill-rule="evenodd" clip-rule="evenodd" d="M61.3538 255.592C61.3538 255.592 70.4362 260.206 78.1949 257.183C87.8783 253.412 92.4725 246.628 92.4725 246.628C92.4725 246.628 82.152 243.181 76.1541 244.461C67.7368 246.258 61.3538 255.592 61.3538 255.592Z" fill="#282A8B"/>
<path fill-rule="evenodd" clip-rule="evenodd" d="M71.5954 206.292C71.5954 206.292 79.3578 212.541 79.7271 220.642C80.1829 230.77 75.8956 237.559 75.8956 237.559C75.8956 237.559 68.6838 229.746 67.4532 223.896C65.7165 215.689 71.5954 206.292 71.5954 206.292Z" fill="#282A8B"/>
<path fill-rule="evenodd" clip-rule="evenodd" d="M41.8633 239.295C41.8633 239.295 49.8341 245.282 57.8403 243.681C67.8343 241.677 73.4313 235.908 73.4313 235.908C73.4313 235.908 64.0568 230.834 58.0515 231.056C49.622 231.366 41.8633 239.295 41.8633 239.295Z" fill="#282A8B"/>
<path fill-rule="evenodd" clip-rule="evenodd" d="M59.9271 193.069C59.9271 193.069 66.3528 200.411 65.3194 208.293C64.0301 218.145 58.7327 223.971 58.7327 223.971C58.7327 223.971 53.1078 215.21 52.9153 209.357C52.6529 201.143 59.9271 193.069 59.9271 193.069Z" fill="#282A8B"/>
<path fill-rule="evenodd" clip-rule="evenodd" d="M25.5847 219.892C25.5847 219.892 32.2542 227.018 40.2567 226.825C50.247 226.584 56.629 221.958 56.629 221.958C56.629 221.958 48.4545 215.477 42.6222 214.676C34.4281 213.549 25.5847 219.892 25.5847 219.892Z" fill="#282A8B"/>
<path fill-rule="evenodd" clip-rule="evenodd" d="M50.6627 178.073C50.6627 178.073 55.6114 186.247 53.2608 193.68C50.3297 202.968 44.2174 207.696 44.2174 207.696C44.2174 207.696 40.292 198.293 41.1124 192.61C42.2565 184.637 50.6627 178.073 50.6627 178.073Z" fill="#282A8B"/>
<path fill-rule="evenodd" clip-rule="evenodd" d="M12.9268 198.153C12.9268 198.153 18.1452 206.158 25.8955 207.325C35.5789 208.782 42.5358 205.399 42.5358 205.399C42.5358 205.399 35.7528 197.761 30.2619 196.002C22.5468 193.528 12.9268 198.153 12.9268 198.153Z" fill="#282A8B"/>
<path fill-rule="evenodd" clip-rule="evenodd" d="M44.2776 161.778C44.2776 161.778 47.6495 170.503 44.1083 177.279C39.6908 185.75 32.986 189.278 32.986 189.278C32.986 189.278 30.8046 179.538 32.5655 174.193C35.0417 166.692 44.2776 161.778 44.2776 161.778Z" fill="#282A8B"/>
<path fill-rule="evenodd" clip-rule="evenodd" d="M4.4209 174.774C4.4209 174.774 8.08401 183.385 15.3628 185.822C24.461 188.866 31.7556 186.778 31.7556 186.778C31.7556 186.778 26.5205 178.26 21.5216 175.628C14.494 171.939 4.4209 174.774 4.4209 174.774Z" fill="#282A8B"/>
<path fill-rule="evenodd" clip-rule="evenodd" d="M40.7556 144.697C40.7556 144.697 42.5165 153.689 37.9455 159.628C32.2276 167.058 25.1488 169.329 25.1488 169.329C25.1488 169.329 24.7135 159.559 27.3338 154.699C31.0006 147.876 40.7556 144.697 40.7556 144.697Z" fill="#282A8B"/>
<path fill-rule="evenodd" clip-rule="evenodd" d="M0.0671387 150.499C0.0671387 150.499 2.13031 159.428 8.73748 163.013C16.9902 167.489 24.3945 166.707 24.3945 166.707C24.3945 166.707 20.7947 157.601 16.4237 154.219C10.2732 149.466 0.0671387 150.499 0.0671387 150.499Z" fill="#282A8B"/>
<path fill-rule="evenodd" clip-rule="evenodd" d="M40.2642 127.162C40.2642 127.162 40.4252 136.138 34.9891 141.099C28.2033 147.299 20.9832 148.295 20.9832 148.295C20.9832 148.295 22.2398 138.795 25.5969 134.545C30.3093 128.579 40.2642 127.162 40.2642 127.162Z" fill="#282A8B"/>
<path fill-rule="evenodd" clip-rule="evenodd" d="M0 125.877C0 125.877 0.459516 134.845 6.22952 139.421C13.4292 145.138 20.6996 145.635 20.6996 145.635C20.6996 145.635 18.7899 136.238 15.1501 132.233C10.0294 126.609 0 125.877 0 125.877Z" fill="#282A8B"/>
<path fill-rule="evenodd" clip-rule="evenodd" d="M42.7876 109.252C42.7876 109.252 41.409 117.942 35.3088 121.809C27.7007 126.647 20.5634 126.385 20.5634 126.385C20.5634 126.385 23.3967 117.429 27.3696 113.897C32.9312 108.936 42.7876 109.252 42.7876 109.252Z" fill="#282A8B"/>
<path fill-rule="evenodd" clip-rule="evenodd" d="M4.15025 101.201C4.15025 101.201 3.05727 109.935 7.83662 115.327C13.8103 122.062 20.7431 123.774 20.7431 123.774C20.7431 123.774 20.5068 114.38 17.6771 109.898C13.7043 103.606 4.15025 101.201 4.15025 101.201Z" fill="#282A8B"/>
<path fill-rule="evenodd" clip-rule="evenodd" d="M48.4425 91.7851C48.4425 91.7851 45.625 99.9377 39.0773 102.639C30.899 106.022 24.0593 104.56 24.0593 104.56C24.0593 104.56 28.3317 96.3958 32.7697 93.6592C38.9862 89.8149 48.4425 91.7851 48.4425 91.7851Z" fill="#282A8B"/>
<path fill-rule="evenodd" clip-rule="evenodd" d="M12.5251 77.4798C12.5251 77.4798 9.98289 85.7239 13.6767 91.7353C18.2867 99.2462 24.6809 102.07 24.6809 102.07C24.6809 102.07 26.065 92.9686 24.1033 88.1619C21.3415 81.4146 12.5251 77.4798 12.5251 77.4798Z" fill="#282A8B"/>
<path fill-rule="evenodd" clip-rule="evenodd" d="M57.1565 75.5853C57.1565 75.5853 53.0413 82.9779 46.2621 84.4775C37.7917 86.359 31.4413 83.7906 31.4413 83.7906C31.4413 83.7906 36.9592 76.6347 41.706 74.7431C48.368 72.0832 57.1565 75.5853 57.1565 75.5853Z" fill="#282A8B"/>
<path fill-rule="evenodd" clip-rule="evenodd" d="M24.9489 55.7014C24.9489 55.7014 21.0812 63.229 23.6122 69.6546C26.7758 77.6851 32.4705 81.4924 32.4705 81.4924C32.4705 81.4924 35.3634 72.9395 34.2872 67.9701C32.7784 60.9907 24.9489 55.7014 24.9489 55.7014Z" fill="#282A8B"/>
<path fill-rule="evenodd" clip-rule="evenodd" d="M68.6644 61.1576C68.6644 61.1576 63.4256 67.5951 56.6221 67.8975C48.1285 68.2784 42.4338 64.7272 42.4338 64.7272C42.4338 64.7272 48.9936 58.7538 53.8948 57.7303C60.7838 56.2926 68.6644 61.1576 68.6644 61.1576Z" fill="#282A8B"/>
<path fill-rule="evenodd" clip-rule="evenodd" d="M40.9764 36.5206C40.9764 36.5206 35.958 43.1301 37.3012 49.7618C38.983 58.0466 43.8219 62.6832 43.8219 62.6832C43.8219 62.6832 48.0784 54.9171 47.8933 49.9421C47.6338 42.9517 40.9764 36.5206 40.9764 36.5206Z" fill="#282A8B"/>
<path fill-rule="evenodd" clip-rule="evenodd" d="M82.4083 49.0671C82.4083 49.0671 76.2411 54.3934 69.6237 53.5326C61.3618 52.4648 56.4727 48.075 56.4727 48.075C56.4727 48.075 63.8258 43.42 68.7354 43.2628C75.6281 43.0363 82.4083 49.0671 82.4083 49.0671Z" fill="#282A8B"/>
<path fill-rule="evenodd" clip-rule="evenodd" d="M59.9034 20.604C59.9034 20.604 53.9175 26.1346 54.0822 32.7636C54.2831 41.0419 58.163 46.3376 58.163 46.3376C58.163 46.3376 63.6009 39.5626 64.2734 34.7273C65.2204 27.9365 59.9034 20.604 59.9034 20.604Z" fill="#282A8B"/>
<path fill-rule="evenodd" clip-rule="evenodd" d="M97.963 39.596C97.963 39.596 91.101 43.6954 84.8677 41.7455C77.0699 39.3158 73.1045 34.254 73.1045 34.254C73.1045 34.254 81 31.0061 85.7626 31.6847C92.4525 32.6333 97.963 39.596 97.963 39.596Z" fill="#282A8B"/>
<path fill-rule="evenodd" clip-rule="evenodd" d="M81.1177 8.32275C81.1177 8.32275 74.4027 12.6505 73.4232 19.0724C72.2009 27.0946 75.038 32.8628 75.038 32.8628C75.038 32.8628 81.4489 27.2425 82.9223 22.692C84.9976 16.2988 81.1177 8.32275 81.1177 8.32275Z" fill="#282A8B"/>
<path fill-rule="evenodd" clip-rule="evenodd" d="M114.666 33.0303C114.666 33.0303 107.341 35.827 101.657 32.8907C94.5478 29.2277 91.5925 23.6702 91.5925 23.6702C91.5925 23.6702 99.7624 21.8711 104.251 23.33C110.535 25.3816 114.666 33.0303 114.666 33.0303Z" fill="#282A8B"/>
<path fill-rule="evenodd" clip-rule="evenodd" d="M103.764 0C103.764 0 96.5368 3.03711 94.4969 9.07436C91.9426 16.6084 93.6876 22.6531 93.6876 22.6531C93.6876 22.6531 100.84 18.3151 103.042 14.1732C106.138 8.35229 103.764 0 103.764 0Z" fill="#282A8B"/>
<path fill-rule="evenodd" clip-rule="evenodd" d="M104.082 18.5994C104.082 18.5994 109.489 21.6347 114.286 19.9964C120.279 17.9532 123.241 13.936 123.241 13.936C123.241 13.936 117.056 11.5822 113.373 12.2025C108.209 13.0836 104.082 18.5994 104.082 18.5994Z" fill="#282A8B"/>
<path fill-rule="evenodd" clip-rule="evenodd" d="M186.761 225.594C186.761 225.594 176.921 228.955 173.662 236.757C169.587 246.503 171.347 254.662 171.347 254.662C171.347 254.662 181.204 249.569 184.505 244.284C189.142 236.867 186.761 225.594 186.761 225.594Z" fill="#282A8B"/>
<path fill-rule="evenodd" clip-rule="evenodd" d="M204.025 268.41C204.025 268.41 194.079 271.444 186.819 267.044C177.761 261.547 174.354 253.919 174.354 253.919C174.354 253.919 185.341 252.274 191.135 254.616C199.275 257.906 204.025 268.41 204.025 268.41Z" fill="#282A8B"/>
<path fill-rule="evenodd" clip-rule="evenodd" d="M202.075 217.192C202.075 217.192 193.151 222.102 191.343 230.181C189.075 240.276 192.176 247.854 192.176 247.854C192.176 247.854 200.815 241.272 203.094 235.614C206.297 227.668 202.075 217.192 202.075 217.192Z" fill="#282A8B"/>
<path fill-rule="evenodd" clip-rule="evenodd" d="M226.066 255.592C226.066 255.592 216.984 260.206 209.23 257.183C199.542 253.412 194.947 246.628 194.947 246.628C194.947 246.628 205.268 243.181 211.265 244.461C219.683 246.258 226.066 255.592 226.066 255.592Z" fill="#282A8B"/>
<path fill-rule="evenodd" clip-rule="evenodd" d="M215.828 206.292C215.828 206.292 208.062 212.541 207.696 220.642C207.236 230.77 211.524 237.559 211.524 237.559C211.524 237.559 218.736 229.746 219.967 223.896C221.703 215.689 215.828 206.292 215.828 206.292Z" fill="#282A8B"/>
<path fill-rule="evenodd" clip-rule="evenodd" d="M245.556 239.295C245.556 239.295 237.581 245.282 229.579 243.681C219.585 241.677 213.992 235.908 213.992 235.908C213.992 235.908 223.366 230.834 229.367 231.056C237.801 231.366 245.556 239.295 245.556 239.295Z" fill="#282A8B"/>
<path fill-rule="evenodd" clip-rule="evenodd" d="M227.497 193.069C227.497 193.069 221.067 200.411 222.105 208.293C223.39 218.145 228.691 223.971 228.691 223.971C228.691 223.971 234.312 215.21 234.504 209.357C234.767 201.143 227.497 193.069 227.497 193.069Z" fill="#282A8B"/>
<path fill-rule="evenodd" clip-rule="evenodd" d="M261.839 219.892C261.839 219.892 255.166 227.018 247.167 226.825C237.177 226.584 230.791 221.958 230.791 221.958C230.791 221.958 238.969 215.477 244.797 214.676C252.992 213.549 261.839 219.892 261.839 219.892Z" fill="#282A8B"/>
<path fill-rule="evenodd" clip-rule="evenodd" d="M236.76 178.073C236.76 178.073 231.812 186.247 234.159 193.68C237.09 202.968 243.201 207.696 243.201 207.696C243.201 207.696 247.127 198.293 246.306 192.61C245.163 184.637 236.76 178.073 236.76 178.073Z" fill="#282A8B"/>
<path fill-rule="evenodd" clip-rule="evenodd" d="M274.493 198.153C274.493 198.153 269.275 206.158 261.524 207.325C251.84 208.782 244.883 205.399 244.883 205.399C244.883 205.399 251.667 197.761 257.157 196.002C264.876 193.528 274.493 198.153 274.493 198.153Z" fill="#282A8B"/>
<path fill-rule="evenodd" clip-rule="evenodd" d="M243.147 161.778C243.147 161.778 239.771 170.503 243.312 177.279C247.73 185.75 254.435 189.278 254.435 189.278C254.435 189.278 256.615 179.538 254.855 174.193C252.379 166.692 243.147 161.778 243.147 161.778Z" fill="#282A8B"/>
<path fill-rule="evenodd" clip-rule="evenodd" d="M283.002 174.774C283.002 174.774 279.335 183.385 272.057 185.822C262.959 188.866 255.668 186.778 255.668 186.778C255.668 186.778 260.899 178.26 265.898 175.628C272.925 171.939 283.002 174.774 283.002 174.774Z" fill="#282A8B"/>
<path fill-rule="evenodd" clip-rule="evenodd" d="M246.663 144.697C246.663 144.697 244.902 153.689 249.477 159.628C255.196 167.058 262.27 169.329 262.27 169.329C262.27 169.329 262.706 159.559 260.089 154.699C256.418 147.876 246.663 144.697 246.663 144.697Z" fill="#282A8B"/>
<path fill-rule="evenodd" clip-rule="evenodd" d="M287.36 150.499C287.36 150.499 285.293 159.428 278.683 163.013C270.43 167.489 263.026 166.707 263.026 166.707C263.026 166.707 266.625 157.601 270.999 154.219C277.147 149.466 287.36 150.499 287.36 150.499Z" fill="#282A8B"/>
<path fill-rule="evenodd" clip-rule="evenodd" d="M247.155 127.162C247.155 127.162 246.998 136.138 252.434 141.099C259.217 147.299 266.437 148.295 266.437 148.295C266.437 148.295 265.187 138.795 261.823 134.545C257.111 128.579 247.155 127.162 247.155 127.162Z" fill="#282A8B"/>
<path fill-rule="evenodd" clip-rule="evenodd" d="M287.42 125.877C287.42 125.877 286.96 134.845 281.194 139.421C273.99 145.138 266.719 145.635 266.719 145.635C266.719 145.635 268.629 136.238 272.268 132.233C277.39 126.609 287.42 125.877 287.42 125.877Z" fill="#282A8B"/>
<path fill-rule="evenodd" clip-rule="evenodd" d="M244.632 109.252C244.632 109.252 246.011 117.942 252.111 121.809C259.723 126.647 266.857 126.385 266.857 126.385C266.857 126.385 264.023 117.429 260.05 113.897C254.488 108.936 244.632 109.252 244.632 109.252Z" fill="#282A8B"/>
<path fill-rule="evenodd" clip-rule="evenodd" d="M283.273 101.201C283.273 101.201 284.361 109.935 279.583 115.327C273.609 122.062 266.677 123.774 266.677 123.774C266.677 123.774 266.912 114.38 269.742 109.898C273.715 103.606 283.273 101.201 283.273 101.201Z" fill="#282A8B"/>
<path fill-rule="evenodd" clip-rule="evenodd" d="M238.976 91.7851C238.976 91.7851 241.799 99.9377 248.343 102.639C256.521 106.022 263.359 104.56 263.359 104.56C263.359 104.56 259.087 96.3958 254.654 93.6592C248.432 89.8149 238.976 91.7851 238.976 91.7851Z" fill="#282A8B"/>
<path fill-rule="evenodd" clip-rule="evenodd" d="M274.895 77.4798C274.895 77.4798 277.437 85.7239 273.742 91.7353C269.132 99.2462 262.738 102.07 262.738 102.07C262.738 102.07 261.355 92.9686 263.319 88.1619C266.078 81.4146 274.895 77.4798 274.895 77.4798Z" fill="#282A8B"/>
<path fill-rule="evenodd" clip-rule="evenodd" d="M230.263 75.5853C230.263 75.5853 234.378 82.9779 241.158 84.4775C249.628 86.359 255.979 83.7906 255.979 83.7906C255.979 83.7906 250.456 76.6347 245.713 74.7431C239.051 72.0832 230.263 75.5853 230.263 75.5853Z" fill="#282A8B"/>
<path fill-rule="evenodd" clip-rule="evenodd" d="M262.471 55.7014C262.471 55.7014 266.342 63.229 263.812 69.6546C260.647 77.6851 254.953 81.4924 254.953 81.4924C254.953 81.4924 252.061 72.9395 253.133 67.9701C254.642 60.9907 262.471 55.7014 262.471 55.7014Z" fill="#282A8B"/>
<path fill-rule="evenodd" clip-rule="evenodd" d="M218.756 61.1576C218.756 61.1576 223.999 67.5951 230.797 67.8975C239.295 68.2784 244.986 64.7272 244.986 64.7272C244.986 64.7272 238.427 58.7538 233.526 57.7303C226.64 56.2926 218.756 61.1576 218.756 61.1576Z" fill="#282A8B"/>
<path fill-rule="evenodd" clip-rule="evenodd" d="M246.444 36.5206C246.444 36.5206 251.462 43.1301 250.118 49.7618C248.437 58.0466 243.599 62.6832 243.599 62.6832C243.599 62.6832 239.342 54.9171 239.527 49.9421C239.787 42.9517 246.444 36.5206 246.444 36.5206Z" fill="#282A8B"/>
<path fill-rule="evenodd" clip-rule="evenodd" d="M205.017 49.0671C205.017 49.0671 211.183 54.3934 217.797 53.5326C226.063 52.4648 230.948 48.075 230.948 48.075C230.948 48.075 223.597 43.42 218.685 43.2628C211.792 43.0363 205.017 49.0671 205.017 49.0671Z" fill="#282A8B"/>
<path fill-rule="evenodd" clip-rule="evenodd" d="M227.52 20.604C227.52 20.604 233.503 26.1346 233.337 32.7636C233.137 41.0419 229.257 46.3376 229.257 46.3376C229.257 46.3376 223.818 39.5626 223.15 34.7273C222.199 27.9365 227.52 20.604 227.52 20.604Z" fill="#282A8B"/>
<path fill-rule="evenodd" clip-rule="evenodd" d="M189.456 39.596C189.456 39.596 196.318 43.6954 202.552 41.7455C210.35 39.3158 214.315 34.254 214.315 34.254C214.315 34.254 206.423 31.0061 201.656 31.6847C194.967 32.6333 189.456 39.596 189.456 39.596Z" fill="#282A8B"/>
<path fill-rule="evenodd" clip-rule="evenodd" d="M206.301 8.32275C206.301 8.32275 213.017 12.6505 214 19.0724C215.223 27.0946 212.382 32.8628 212.382 32.8628C212.382 32.8628 205.975 27.2425 204.498 22.692C202.422 16.2988 206.301 8.32275 206.301 8.32275Z" fill="#282A8B"/>
<path fill-rule="evenodd" clip-rule="evenodd" d="M172.754 33.0303C172.754 33.0303 180.079 35.827 185.762 32.8907C192.872 29.2277 195.827 23.6702 195.827 23.6702C195.827 23.6702 187.66 21.8711 183.172 23.33C176.884 25.3816 172.754 33.0303 172.754 33.0303Z" fill="#282A8B"/>
<path fill-rule="evenodd" clip-rule="evenodd" d="M183.656 0C183.656 0 190.887 3.03711 192.927 9.07436C195.477 16.6084 193.732 22.6531 193.732 22.6531C193.732 22.6531 186.584 18.3151 184.378 14.1732C181.285 8.35229 183.656 0 183.656 0Z" fill="#282A8B"/>
<path fill-rule="evenodd" clip-rule="evenodd" d="M183.338 18.5994C183.338 18.5994 177.929 21.6347 173.134 19.9964C167.141 17.9532 164.177 13.936 164.177 13.936C164.177 13.936 170.368 11.5822 174.047 12.2025C179.21 13.0836 183.338 18.5994 183.338 18.5994Z" fill="#282A8B"/>
<path d="M66.6305 153.175L64.4492 153.648L64.0627 151.519L70.9375 150.027L71.324 152.156L69.1427 152.63L70.2339 158.645L67.7229 159.189L66.6316 153.174L66.6305 153.175ZM75.8751 157.629C75.2572 157.757 74.6416 157.806 74.0294 157.776C73.4161 157.745 72.9 157.64 72.48 157.463L72.9428 155.291C73.3374 155.443 73.7656 155.54 74.2308 155.586C74.6948 155.631 75.1299 155.611 75.5349 155.527C75.8832 155.455 76.1251 155.367 76.2616 155.263C76.3981 155.158 76.4537 155.033 76.4282 154.885C76.3981 154.714 76.2778 154.606 76.0684 154.561C75.8589 154.516 75.521 154.488 75.0558 154.481C74.4576 154.468 73.9531 154.425 73.5434 154.353C73.1338 154.281 72.7565 154.101 72.4129 153.814C72.068 153.527 71.8447 153.088 71.7429 152.497C71.6538 151.984 71.7047 151.491 71.8956 151.016C72.0865 150.543 72.421 150.131 72.9023 149.781C73.3826 149.432 73.9959 149.182 74.7422 149.027C75.2537 148.921 75.7663 148.877 76.2824 148.896C76.7962 148.913 77.2626 149.001 77.6791 149.155L77.2672 151.305C76.4653 151.052 75.7374 150.994 75.0836 151.129C74.4367 151.263 74.1428 151.501 74.203 151.841C74.2308 152.006 74.3488 152.107 74.5548 152.15C74.7608 152.192 75.0929 152.213 75.5488 152.216C76.1378 152.215 76.64 152.25 77.0577 152.321C77.4755 152.392 77.8573 152.568 78.2045 152.851C78.5516 153.133 78.7761 153.57 78.878 154.161C78.9671 154.674 78.9161 155.165 78.7252 155.635C78.5343 156.106 78.1987 156.517 77.7185 156.87C77.2382 157.223 76.6261 157.477 75.8797 157.63L75.8751 157.629ZM82.972 153.937L82.287 154.057L82.5901 156.118L80.0629 156.564L78.8548 148.365L82.464 147.73C83.1572 147.609 83.7786 147.628 84.3294 147.786C84.8802 147.945 85.3292 148.234 85.6775 148.654C86.0246 149.073 86.2445 149.595 86.337 150.219C86.4238 150.805 86.3776 151.338 86.1982 151.817C86.02 152.297 85.7214 152.707 85.3025 153.045L87.2489 155.297L84.5504 155.773L82.972 153.936V153.937ZM83.7878 150.67C83.7427 150.365 83.6223 150.145 83.4256 150.007C83.2301 149.869 82.9604 149.831 82.6179 149.89L81.6968 150.052L81.9792 151.973L82.9003 151.811C83.2428 151.75 83.4869 151.621 83.6339 151.424C83.7797 151.225 83.8318 150.975 83.7866 150.67H83.7878ZM90.8685 154.876C90.2471 154.982 89.6304 155.01 89.0194 154.959C88.4084 154.907 87.8946 154.786 87.4792 154.593L88.0045 152.437C88.3945 152.602 88.8203 152.716 89.2832 152.776C89.7461 152.837 90.1812 152.832 90.5885 152.763C90.9379 152.702 91.1833 152.622 91.3221 152.522C91.461 152.422 91.5212 152.298 91.4992 152.15C91.4749 151.978 91.358 151.867 91.1485 151.814C90.9391 151.762 90.6024 151.722 90.1383 151.698C89.5401 151.665 89.0379 151.605 88.6294 151.519C88.2221 151.431 87.8495 151.24 87.5151 150.942C87.1795 150.643 86.9689 150.196 86.8832 149.603C86.8092 149.088 86.8751 148.596 87.0788 148.129C87.2825 147.662 87.6296 147.262 88.1202 146.929C88.6109 146.597 89.23 146.367 89.981 146.238C90.4947 146.15 91.0097 146.123 91.5235 146.16C92.0373 146.195 92.5001 146.298 92.9121 146.467L92.4388 148.602C91.645 148.322 90.9194 148.239 90.2622 148.352C89.6118 148.463 89.3121 148.691 89.3607 149.034C89.3839 149.198 89.4984 149.304 89.7032 149.354C89.9081 149.403 90.239 149.436 90.6949 149.454C91.2828 149.473 91.785 149.525 92.1993 149.611C92.6147 149.695 92.9919 149.885 93.3298 150.179C93.6689 150.472 93.8806 150.916 93.9651 151.51C94.0392 152.025 93.9743 152.516 93.7695 152.979C93.5659 153.442 93.2176 153.842 92.7281 154.178C92.2374 154.515 91.6184 154.747 90.8685 154.876ZM104.374 150.672L104.593 152.77L98.3195 153.551L97.4609 145.301L103.594 144.538L103.813 146.636L100.18 147.087L100.281 148.054L103.471 147.657L103.68 149.66L100.489 150.057L100.601 151.142L104.374 150.672ZM112.396 143.6L113.025 151.876L110.927 152.065L107.765 148.567L108.051 152.326L105.565 152.551L104.936 144.276L107.034 144.086L110.196 147.585L109.91 143.825L112.396 143.6ZM117.171 148.777L116.641 149.517L116.767 151.564L114.256 151.75L113.742 143.466L116.253 143.28L116.44 146.287L118.742 143.095L121.524 142.889L118.719 146.758L122.188 151.162L119.234 151.381L117.17 148.775L117.171 148.777ZM126.25 151.073C125.434 151.13 124.691 150.996 124.019 150.671C123.348 150.346 122.809 149.866 122.402 149.233C121.995 148.601 121.768 147.869 121.719 147.041C121.67 146.212 121.81 145.455 122.14 144.771C122.47 144.086 122.948 143.536 123.576 143.118C124.204 142.702 124.925 142.465 125.741 142.408C126.557 142.351 127.3 142.485 127.972 142.811C128.643 143.136 129.182 143.615 129.59 144.248C129.997 144.881 130.224 145.612 130.274 146.441C130.322 147.27 130.181 148.026 129.852 148.711C129.523 149.397 129.045 149.947 128.416 150.363C127.788 150.78 127.067 151.018 126.251 151.075L126.25 151.073ZM126.117 148.812C126.435 148.789 126.716 148.684 126.963 148.497C127.209 148.31 127.399 148.054 127.532 147.732C127.665 147.409 127.72 147.038 127.695 146.621C127.671 146.202 127.574 145.842 127.404 145.541C127.234 145.24 127.016 145.014 126.75 144.862C126.484 144.71 126.192 144.645 125.874 144.667C125.557 144.69 125.275 144.793 125.028 144.982C124.782 145.169 124.592 145.425 124.459 145.746C124.326 146.069 124.271 146.438 124.296 146.857C124.32 147.275 124.417 147.635 124.587 147.935C124.756 148.236 124.975 148.463 125.241 148.615C125.507 148.767 125.8 148.831 126.117 148.808V148.812ZM135.437 150.727C134.62 150.747 133.882 150.579 133.223 150.223C132.565 149.867 132.045 149.364 131.662 148.712C131.279 148.062 131.08 147.32 131.063 146.49C131.045 145.66 131.214 144.91 131.57 144.24C131.925 143.571 132.424 143.043 133.067 142.656C133.71 142.269 134.44 142.064 135.257 142.045C136.074 142.025 136.812 142.193 137.471 142.549C138.13 142.904 138.65 143.408 139.032 144.058C139.414 144.71 139.614 145.45 139.632 146.28C139.649 147.11 139.48 147.861 139.125 148.529C138.769 149.198 138.27 149.727 137.627 150.114C136.984 150.501 136.254 150.705 135.437 150.725V150.727ZM135.391 148.462C135.709 148.454 135.995 148.362 136.248 148.185C136.501 148.009 136.7 147.762 136.846 147.446C136.991 147.129 137.06 146.762 137.051 146.343C137.043 145.925 136.958 145.56 136.801 145.251C136.643 144.943 136.433 144.706 136.173 144.543C135.914 144.378 135.624 144.301 135.305 144.309C134.987 144.316 134.701 144.409 134.447 144.585C134.194 144.761 133.995 145.007 133.849 145.322C133.703 145.639 133.635 146.006 133.644 146.426C133.652 146.845 133.736 147.209 133.894 147.516C134.053 147.825 134.262 148.062 134.523 148.225C134.783 148.388 135.072 148.467 135.391 148.459V148.462ZM143.891 148.33L143.197 148.335L143.211 150.423L140.65 150.444L140.593 142.141L144.249 142.112C144.95 142.106 145.562 142.227 146.084 142.477C146.607 142.725 147.01 143.085 147.295 143.557C147.58 144.029 147.726 144.582 147.731 145.215C147.735 145.808 147.615 146.327 147.372 146.771C147.13 147.217 146.777 147.571 146.316 147.835L147.928 150.385L145.195 150.408L143.89 148.33H143.891ZM145.15 145.235C145.148 144.926 145.06 144.688 144.885 144.519C144.71 144.351 144.45 144.267 144.103 144.271L143.17 144.278L143.183 146.225L144.116 146.217C144.463 146.214 144.722 146.127 144.894 145.955C145.067 145.783 145.152 145.544 145.15 145.235ZM150.026 152.833C149.568 152.112 149.226 151.272 148.995 150.314C148.766 149.356 148.661 148.336 148.679 147.253C148.698 146.17 148.838 145.154 149.101 144.208C149.363 143.26 149.735 142.435 150.217 141.733L152.561 141.781C152.059 142.712 151.69 143.624 151.455 144.516C151.219 145.41 151.093 146.338 151.076 147.303C151.059 148.267 151.153 149.199 151.358 150.102C151.563 151.004 151.9 151.93 152.368 152.881L150.025 152.833H150.026ZM159.085 146.457C159.527 146.657 159.865 146.937 160.098 147.294C160.332 147.652 160.441 148.076 160.424 148.565C160.398 149.292 160.104 149.845 159.542 150.22C158.978 150.598 158.176 150.765 157.136 150.722L152.865 150.546L153.15 142.249L157.204 142.415C158.216 142.456 158.974 142.685 159.477 143.102C159.98 143.518 160.221 144.054 160.198 144.71C160.184 145.097 160.083 145.441 159.896 145.742C159.708 146.044 159.438 146.281 159.085 146.457ZM155.598 144.309L155.555 145.541L156.747 145.591C157.304 145.613 157.59 145.42 157.603 145.009C157.617 144.597 157.347 144.381 156.79 144.358L155.598 144.309ZM156.987 148.758C157.55 148.782 157.84 148.576 157.855 148.14C157.87 147.706 157.595 147.477 157.032 147.453L155.493 147.39L155.448 148.693L156.987 148.756V148.758ZM160.355 153.132C160.884 152.22 161.28 151.321 161.544 150.438C161.807 149.555 161.963 148.631 162.009 147.668C162.055 146.705 161.989 145.769 161.812 144.859C161.635 143.949 161.327 143.012 160.889 142.044L163.228 142.178C163.664 142.916 163.982 143.767 164.182 144.734C164.381 145.699 164.455 146.723 164.403 147.806C164.351 148.888 164.179 149.898 163.888 150.835C163.596 151.773 163.198 152.583 162.695 153.267L160.355 153.133V153.132ZM168.813 146.89L172.058 147.171L171.912 149.182L168.667 148.901L168.813 146.89ZM181.367 151.035L178.496 150.727L177.859 152.112L175.268 151.834L179.314 143.925L181.818 144.195L184.379 152.813L181.745 152.53L181.367 151.035ZM180.846 148.953L180.299 146.796L179.378 148.796L180.846 148.954V148.953ZM185.737 144.601L188.277 144.95L187.578 151.035L190.98 151.502L190.732 153.656L184.79 152.841L185.735 144.602L185.737 144.601ZM194.96 154.443C193.805 154.28 192.946 153.81 192.381 153.037C191.816 152.264 191.607 151.261 191.753 150.029L192.288 145.501L194.827 145.86L194.301 150.306C194.23 150.91 194.276 151.363 194.441 151.665C194.605 151.968 194.874 152.146 195.247 152.198C195.62 152.251 195.922 152.154 196.151 151.907C196.38 151.662 196.531 151.235 196.602 150.632L197.129 146.185L199.625 146.538L199.089 151.067C198.943 152.298 198.508 153.209 197.781 153.8C197.055 154.391 196.115 154.605 194.96 154.442V154.443ZM206.493 156.222L207.061 152.489L204.963 155.174L203.851 154.964L202.679 151.793L202.109 155.393L199.811 154.958L201.106 146.776L203.181 147.168L204.928 151.988L207.991 148.077L210.065 148.469L208.792 156.656L206.494 156.221L206.493 156.222ZM218.704 150.146L217.379 158.321L215.307 157.919L213.068 153.655L212.466 157.368L210.009 156.893L211.335 148.717L213.408 149.118L215.647 153.384L216.249 149.67L218.705 150.146H218.704ZM220.198 150.647L222.699 151.25L221.061 159.359L218.561 158.755L220.198 150.647Z" fill="#282A8B"/>
<path d="M145.205 49.1944L146.602 50.7125C158.422 63.6005 179.23 69.045 199.488 57.5475L200.634 56.8785L202.387 55.8247L223.571 98.1961L222.181 99.1227C212.6 105.51 207.447 118.8 214.12 133.526C214.51 134.215 214.885 134.915 215.244 135.624C220.938 136.741 226.592 137.992 232.194 139.38L236.385 140.446L238.002 140.868L227.452 178.397L225.896 177.992C223.426 177.348 220.943 176.735 218.449 176.152C217.875 177.955 217.193 179.742 216.405 181.509C207.242 202.05 184.896 218.525 147.819 228.943L145.48 229.589H144.929L144.712 229.528C106.36 219.145 83.3401 202.437 74.0095 181.509C73.1275 179.533 72.3785 177.532 71.7572 175.516C69.4697 176.027 67.1909 176.565 64.9222 177.128L61.5269 177.992L59.9703 178.397L49.4199 140.868L54.3587 139.596C61.3296 137.85 68.3827 136.316 75.4981 134.992C75.7413 134.527 75.9936 134.065 76.2526 133.608C82.8072 119.152 78.0526 106.144 68.9102 99.5907L68.2335 99.1228L66.8434 98.1962L88.0269 55.8247L89.7795 56.8781C110.015 69.0196 130.984 64.0387 143.134 51.4341L143.812 50.7125L145.205 49.1944ZM75.4699 174.706C76.0238 176.478 76.6867 178.232 77.4599 179.966C86.0945 199.321 107.439 215.09 143.38 225.234L145.198 225.736L147.022 225.234C182.275 215.284 203.482 199.926 212.43 181.078L212.942 179.966C213.554 178.593 214.098 177.207 214.574 175.812L214.739 175.308C169.568 165.33 120.785 165.129 75.4699 174.706ZM232.265 142.777C173.996 128.186 109.91 128.467 51.8649 143.619L53.4837 143.204L62.2567 174.418L63.9087 174C115.358 161.188 172.063 161.188 223.514 174L225.161 174.418L233.934 143.204L232.265 142.777ZM145.198 54.7023C132.283 67.3357 111.553 72.4855 91.1509 61.9756L89.9272 61.3262L89.5997 61.1386L71.6969 96.9523C81.4684 104.497 86.4264 117.973 80.6242 132.964L80.1352 134.161C121.602 127.005 165.024 126.961 206.515 134.028L210.516 134.732L210.24 134.096C203.898 119.002 208.472 105.345 217.984 97.5338L218.707 96.9523L200.804 61.1386L200.554 61.2824C180.136 72.4732 159.276 67.8497 146.008 55.4766L145.198 54.7023Z" fill="#282A8B"/>
</svg>
