<svg width="325" height="224" viewBox="0 0 325 224" fill="none" xmlns="http://www.w3.org/2000/svg">
    <defs>
        <linearGradient id="paint0_linear" x1="241.257" y1="198.478" x2="241.257" y2="62.7497" gradientUnits="userSpaceOnUse">
            <stop stop-color="#808080" stop-opacity="0.25"/>
            <stop offset="0.54" stop-color="#808080" stop-opacity="0.12"/>
            <stop offset="1" stop-color="#808080" stop-opacity="0.1"/>
        </linearGradient>
        <clipPath id="clip0">
            <rect width="324.944" height="224" fill="white"/>
        </clipPath>
    </defs>
<g clip-path="url(#clip0)">
<path opacity="0.1" d="M100.333 11.3171C111.358 1.38665 128.665 -0.63545 144.417 0.154827C193.895 2.63815 238.559 26.7571 277.192 54.0399C291.178 63.917 304.948 74.5702 314.034 88.1624C332.517 115.85 327.033 154.208 301.336 177.017C292.593 184.779 281.993 190.727 271.112 196.003C251.766 205.379 230.895 212.905 208.933 215.048C193.274 216.575 177.434 215.33 161.854 213.203C118.361 207.247 75.6687 194.079 39.884 171.541C24.1825 161.658 9.38942 149.371 2.92096 133.374C-3.5475 117.377 0.592316 97.1255 16.6172 87.6618C23.246 83.747 31.1685 81.9809 38.9278 80.3187C50.3489 77.8776 61.9499 75.4674 72.2573 70.5007C82.9021 65.371 95.5043 55.4489 93.3979 44.0925C91.1367 31.9178 89.3227 21.2167 100.333 11.3171Z" fill="#FF5722"/>
<path d="M72.1936 125.941C72.1936 125.941 75.11 123.851 78.1277 125.142C78.1277 125.142 77.284 126.937 73.5239 126.914L72.1936 125.941Z" fill="#FF5722"/>
<path d="M71.8308 126.062C71.8308 126.062 71.0518 129.563 73.4254 131.836C73.4254 131.836 74.7416 130.354 73.2455 126.906L71.8308 126.062Z" fill="#FF5722"/>
<path d="M67.9751 122.875C67.9751 122.875 68.082 119.92 74.7754 120.642C74.7754 120.642 74.8795 122.544 72.5789 123.534C70.2784 124.524 69.176 123.812 67.9751 122.875Z" fill="#FF5722"/>
<path d="M67.5617 122.87C67.5617 122.87 64.7803 123.882 67.5308 130.03C67.5308 130.03 69.3701 129.544 69.6035 127.049C69.8369 124.554 68.8188 123.73 67.5617 122.87Z" fill="#FF5722"/>
<path d="M63.6327 118.834C63.6327 118.834 63.0703 113.997 69.8875 114.233C69.8875 114.233 70.5371 118.606 64.8786 119.953L63.6327 118.834Z" fill="#FF5722"/>
<path d="M58.9276 113.53C58.9276 113.53 59.6504 107.998 66.521 109.373C66.521 109.373 66.7292 114.126 60.0976 114.798L58.9276 113.53Z" fill="#FF5722"/>
<path d="M55.4263 107.992C55.4263 107.992 56.7818 102.567 63.5821 103.923C63.5821 103.923 62.176 108.802 55.9128 108.965L55.4263 107.992Z" fill="#FF5722"/>
<path d="M52.0936 102.584C52.0936 102.584 53.407 96.9594 59.9683 98.3881C59.9683 98.3881 57.9996 103.751 52.552 103.515L52.0936 102.584Z" fill="#FF5722"/>
<path d="M49.8802 97.4095C49.8802 97.4095 50.7943 90.5669 56.9112 91.8381C56.9112 91.8381 55.3869 98.0901 50.3584 98.3797L49.8802 97.4095Z" fill="#FF5722"/>
<path d="M47.7512 91.135C47.7512 91.135 48.8959 84.2307 55.1056 85.9884C55.1056 85.9884 52.9457 92.5553 48.2153 92.0659L47.7512 91.135Z" fill="#FF5722"/>
<path d="M46.3563 85.2825C46.3563 85.2825 48.325 78.3472 53.0835 78.35C53.0835 78.35 51.0727 85.6622 46.8063 86.6409L46.3563 85.2825Z" fill="#FF5722"/>
<path d="M45.3945 79.5396C45.3945 79.5396 47.5122 71.1981 51.3989 71.6875C51.3989 71.6875 49.9562 78.0547 45.5801 80.8193L45.3945 79.5396Z" fill="#FF5722"/>
<path d="M44.7112 72.6718C44.7112 72.6718 46.7277 65.714 50.53 65.2921C50.53 65.2921 49.2363 72.1121 44.8631 74.4548L44.7112 72.6718Z" fill="#FF5722"/>
<path d="M44.0024 66.282C44.0024 66.282 46.5842 59.2933 49.0985 59.0402C49.0985 59.0402 48.1226 65.8602 44.2977 67.4014L44.0024 66.282Z" fill="#FF5722"/>
<path d="M43.4596 60.3255C43.4596 60.3255 44.922 52.7855 47.4138 52.0712C47.4138 52.0712 47.3041 58.1937 43.7324 60.8739L43.4596 60.3255Z" fill="#FF5722"/>
<path d="M42.2137 52.552C42.2137 52.552 43.8252 46.5279 45.8277 45.5408C45.8277 45.5408 45.6927 52.5717 42.734 53.9779L42.2137 52.552Z" fill="#FF5722"/>
<path d="M41.2295 47.4505L40.4561 36.9659C40.4561 36.9659 44.5621 44.745 41.581 49.2926L41.2295 47.4505Z" fill="#FF5722"/>
<path d="M37.8826 37.1289C37.8826 37.1289 34.8481 29.5665 34.1731 29.1643C34.1731 29.1643 39.7416 33.9453 39.4604 40.3519L37.8826 37.1289Z" fill="#FF5722"/>
<path d="M63.4471 118.806C63.4471 118.806 58.5958 118.359 59.0036 125.17C59.0036 125.17 63.3909 125.713 64.5974 120.021L63.4471 118.806Z" fill="#FF5722"/>
<path d="M58.6942 113.356C58.6942 113.356 53.1201 113.55 53.8401 120.51C53.8401 120.51 58.5508 121.168 59.8473 114.63L58.6942 113.356Z" fill="#FF5722"/>
<path d="M55.3898 108.448C55.3898 108.448 50.2375 106.268 47.2339 112.517C47.2339 112.517 51.984 114.315 55.8735 109.424L55.3898 108.448Z" fill="#FF5722"/>
<path d="M51.9811 102.64C51.9811 102.64 46.7051 100.312 43.8899 106.415C43.8899 106.415 49.3599 108.066 52.4451 103.569L51.9811 102.64Z" fill="#FF5722"/>
<path d="M49.9506 97.5528C49.9506 97.5528 44.7814 92.9799 40.9875 97.9522C40.9875 97.9522 46.2326 101.676 50.2206 98.6047L49.9506 97.5528Z" fill="#FF5722"/>
<path d="M48.0269 90.9606C48.0269 90.9606 42.824 86.2808 39.0695 91.5231C39.0695 91.5231 44.8545 95.3057 48.2462 91.9702L48.0269 90.9606Z" fill="#FF5722"/>
<path d="M46.8626 85.0603C46.8626 85.0603 42.7649 79.1262 38.2651 80.6561C38.2651 80.6561 42.5231 86.9446 46.8738 86.4918L46.8626 85.0603Z" fill="#FF5722"/>
<path d="M45.5098 79.4973C45.5098 79.4973 41.3166 71.9827 37.6886 73.4535C37.6886 73.4535 40.7203 79.2357 45.6561 80.7797L45.5098 79.4973Z" fill="#FF5722"/>
<path d="M44.9615 72.2696C44.9615 72.2696 40.726 66.3917 37.0052 67.272C37.0052 67.272 40.5123 73.2624 45.4171 74.002L44.9615 72.2696Z" fill="#FF5722"/>
<path d="M44.4214 66.1301C44.4214 66.1301 41.0607 59.4817 38.5352 59.5182C38.5352 59.5182 40.2816 66.1835 44.2555 67.2747L44.4214 66.1301Z" fill="#FF5722"/>
<path d="M43.5777 60.1735C43.5777 60.1735 39.8654 53.4519 37.2723 53.5363C37.2723 53.5363 39.2635 59.3298 43.4849 60.781L43.5777 60.1735Z" fill="#FF5722"/>
<path d="M42.7818 52.9401C42.7818 52.9401 39.9835 47.3659 37.8236 46.8063C37.8236 46.8063 39.3789 53.6685 42.554 54.4559L42.7818 52.9401Z" fill="#FF5722"/>
<path d="M40.9144 47.2647L34.8143 38.7039C34.8143 38.7039 36.6227 47.3154 41.8199 48.9072L40.9144 47.2647Z" fill="#FF5722"/>
<path d="M36.5918 37.8855C36.5918 37.8855 29.7268 33.5179 29.4456 32.7782C29.4456 32.7782 33.1016 39.1285 39.4745 40.0285L36.5918 37.8855Z" fill="#FF5722"/>
<path d="M36.1108 35.8212C36.1108 35.8212 28.1349 28.72 26.1719 28.8043C26.1719 28.8043 32.5278 28.8493 36.2964 35.4219L36.1108 35.8212Z" fill="#FF5722"/>
<path d="M42.7481 54.0651L42.4668 54.1129C40.5882 42.8493 38.223 36.2431 35.8099 35.5062L35.8915 35.225C38.4451 36.0012 40.8244 42.5118 42.7481 54.0651Z" fill="#444053"/>
<path d="M45.912 81.0302L45.4901 81.0808C45.3607 80.029 45.2482 78.949 45.1611 77.8747C44.3989 68.5236 43.4427 59.9458 42.374 53.528L42.6074 53.2158C43.679 59.6449 44.8208 68.4758 45.5857 77.841C45.6729 78.9097 45.7826 79.9812 45.912 81.0302Z" fill="#444053"/>
<path d="M80.3017 131.026C80.2258 130.995 72.6436 127.952 64.6002 120.308C59.8899 115.834 55.9183 110.641 52.8333 104.924C48.9775 97.7778 46.4548 88.9076 45.3889 80.2399L45.8389 80.4311C48.2294 99.8871 57.6284 112.892 64.963 119.88C72.9277 127.457 80.4311 130.469 80.5014 130.497L80.3017 131.026Z" fill="#444053"/>
<g opacity="0.7">
<path opacity="0.7" d="M83.9606 108.122C83.9606 108.122 87.3664 106.997 89.8666 109.126C89.8666 109.126 88.5251 110.588 84.9421 109.446L83.9606 108.122Z" fill="#FF5722"/>
<path opacity="0.7" d="M83.5781 108.127C83.5781 108.127 81.7951 111.241 83.3841 114.112C83.3841 114.112 85.0715 113.091 84.6806 109.354L83.5781 108.127Z" fill="#FF5722"/>
<path opacity="0.7" d="M80.8417 103.94C80.8417 103.94 81.826 101.15 87.9992 103.83C87.9992 103.83 87.5351 105.678 85.0405 105.936C82.546 106.195 81.7135 105.186 80.8417 103.94Z" fill="#FF5722"/>
<path opacity="0.7" d="M80.4509 103.813C80.4509 103.813 77.4978 103.954 78.2909 110.639C78.2909 110.639 80.1949 110.723 81.1596 108.409C82.1242 106.094 81.3958 105.006 80.4509 103.813Z" fill="#FF5722"/>
<path opacity="0.7" d="M77.9027 98.7818C77.9027 98.7818 78.7999 94.0008 85.2402 96.2507C85.2402 96.2507 84.5624 100.618 78.7577 100.222L77.9027 98.7818Z" fill="#FF5722"/>
<path opacity="0.7" d="M74.9891 92.3133C74.9891 92.3133 77.3234 87.2511 83.4657 90.6034C83.4657 90.6034 82.2507 95.2016 75.7175 93.8714L74.9891 92.3133Z" fill="#FF5722"/>
<path opacity="0.7" d="M73.2905 85.9996C73.2905 85.9996 76.2013 81.2186 82.2902 84.54C82.2902 84.54 79.4778 88.7754 73.4677 87.0711L73.2905 85.9996Z" fill="#FF5722"/>
<path opacity="0.7" d="M71.7184 79.8432C71.7184 79.8432 74.6432 74.8709 80.4902 78.1811C80.4902 78.1811 77.0169 82.7146 71.8871 80.8697L71.7184 79.8432Z" fill="#FF5722"/>
<path opacity="0.7" d="M71.1447 74.2438C71.1447 74.2438 74.0526 67.9834 79.5199 71.0208C79.5199 71.0208 76.2041 76.5331 71.319 75.3153L71.1447 74.2438Z" fill="#FF5722"/>
<path opacity="0.7" d="M70.9816 67.6207C70.9816 67.6207 74.1286 61.3688 79.5312 64.8955C79.5312 64.8955 75.5179 70.5202 71.1475 68.6472L70.9816 67.6207Z" fill="#FF5722"/>
<path opacity="0.7" d="M71.3949 61.6106C71.3949 61.6106 75.3322 55.5753 79.877 56.9927C79.877 56.9927 75.7794 63.3852 71.4174 63.0421L71.3949 61.6106Z" fill="#FF5722"/>
<path opacity="0.7" d="M72.1937 55.8481C72.1937 55.8481 76.6935 48.5163 80.2624 50.139C80.2624 50.139 76.9888 55.7891 71.9912 57.1249L72.1937 55.8481Z" fill="#FF5722"/>
<path opacity="0.7" d="M73.5689 49.0899C73.5689 49.0899 77.5681 43.0461 81.3198 43.7745C81.3198 43.7745 78.0574 49.9027 73.1864 50.8364L73.5689 49.0899Z" fill="#FF5722"/>
<path opacity="0.7" d="M74.7979 42.7762C74.7979 42.7762 79.3399 36.8702 81.8148 37.382C81.8148 37.382 78.8534 43.603 74.7445 43.932L74.7979 42.7762Z" fill="#FF5722"/>
<path opacity="0.7" d="M76.0494 36.9292C76.0494 36.9292 79.6887 30.1795 82.2817 30.2245C82.2817 30.2245 80.3524 36.0376 76.1479 37.5366L76.0494 36.9292Z" fill="#FF5722"/>
<path opacity="0.7" d="M77.1715 29.1362C77.1715 29.1362 80.5042 23.8658 82.7091 23.5115C82.7091 23.5115 80.4873 30.1881 77.2474 30.6577L77.1715 29.1362Z" fill="#FF5722"/>
<path opacity="0.7" d="M77.751 23.9726L80.133 13.73C80.133 13.73 81.7389 22.378 77.5372 25.8232L77.751 23.9726Z" fill="#FF5722"/>
<path opacity="0.7" d="M77.6328 13.1252C77.6328 13.1252 76.9832 5.00308 76.4601 4.40686C76.4601 4.40686 80.358 10.6166 78.1812 16.6632L77.6328 13.1252Z" fill="#FF5722"/>
<path opacity="0.7" d="M77.7312 98.7058C77.7312 98.7058 73.2314 96.8384 71.5974 103.464C71.5974 103.464 75.6219 105.287 78.468 100.21L77.7312 98.7058Z" fill="#FF5722"/>
<path opacity="0.7" d="M74.8148 92.0883C74.8148 92.0883 69.4347 90.6174 68.051 97.4768C68.051 97.4768 72.354 99.5074 75.5376 93.6492L74.8148 92.0883Z" fill="#FF5722"/>
<path opacity="0.7" d="M73.1217 86.4215C73.1217 86.4215 68.8525 82.8076 64.1221 87.8811C64.1221 87.8811 68.1213 91.0112 73.2933 87.493L73.1217 86.4215Z" fill="#FF5722"/>
<path opacity="0.7" d="M71.5974 79.863C71.5974 79.863 67.2494 76.0719 62.7496 81.0582C62.7496 81.0582 67.4801 84.2643 71.7633 80.8895L71.5974 79.863Z" fill="#FF5722"/>
<path opacity="0.7" d="M71.1728 74.4041C71.1728 74.4041 67.5954 68.4981 62.4938 72.1149C62.4938 72.1149 66.3946 77.2334 71.1165 75.4897L71.1728 74.4041Z" fill="#FF5722"/>
<path opacity="0.7" d="M71.2965 67.5364C71.2965 67.5364 67.7191 61.5207 62.5781 65.413C62.5781 65.413 66.9767 70.7566 71.2037 68.5713L71.2965 67.5364Z" fill="#FF5722"/>
<path opacity="0.7" d="M71.9377 61.5545C71.9377 61.5545 69.7918 54.6726 65.0417 54.8047C65.0417 54.8047 67.2354 62.0776 71.5243 62.9381L71.9377 61.5545Z" fill="#FF5722"/>
<path opacity="0.7" d="M72.3006 55.8424C72.3006 55.8424 70.5344 47.4193 66.6337 47.7456C66.6337 47.7456 67.8092 54.169 72.0616 57.1136L72.3006 55.8424Z" fill="#FF5722"/>
<path opacity="0.7" d="M73.9316 48.7806C73.9316 48.7806 71.6367 41.9072 67.8203 41.64C67.8203 41.64 69.3868 48.4038 73.8501 50.5693L73.9316 48.7806Z" fill="#FF5722"/>
<path opacity="0.7" d="M75.2422 42.7564C75.2422 42.7564 74.0104 35.4105 71.5861 34.6934C71.5861 34.6934 71.274 41.5752 74.7416 43.8026L75.2422 42.7564Z" fill="#FF5722"/>
<path opacity="0.7" d="M76.2069 36.8196C76.2069 36.8196 74.6629 29.2965 72.1627 28.6074C72.1627 28.6074 72.3399 34.73 75.9398 37.3708L76.2069 36.8196Z" fill="#FF5722"/>
<path opacity="0.7" d="M77.5961 29.6873C77.5961 29.6873 76.5837 23.5339 74.6881 22.3555C74.6881 22.3555 74.1257 29.3695 76.938 31.0738L77.5961 29.6873Z" fill="#FF5722"/>
<path opacity="0.7" d="M77.5063 23.6915L74.2271 13.7019C74.2271 13.7019 73.3834 22.4596 77.8831 25.5279L77.5063 23.6915Z" fill="#FF5722"/>
<path opacity="0.7" d="M76.1703 13.4628C76.1703 13.4628 70.9028 7.24461 70.8634 6.45996C70.8634 6.45996 72.4749 13.6118 78.2796 16.3651L76.1703 13.4628Z" fill="#FF5722"/>
<path opacity="0.7" d="M76.325 11.3507C76.325 11.3507 70.8212 2.19641 68.9229 1.69019C68.9229 1.69019 74.9751 3.62791 76.6062 11.016L76.325 11.3507Z" fill="#FF5722"/>
<path opacity="0.7" d="M77.2362 30.7223L76.955 30.683C78.5102 19.3744 78.2205 12.3603 76.1338 10.9401L76.2941 10.7067C78.5074 12.2169 78.8308 19.1382 77.2362 30.7223Z" fill="#444053"/>
<path opacity="0.7" d="M72.2302 57.4399L71.8112 57.364C72.0024 56.3206 72.2161 55.2575 72.4524 54.2029C74.5082 45.0486 76.1478 36.5777 77.0337 30.1317L77.3515 29.9011C76.4628 36.3696 74.9244 45.1301 72.8686 54.2985C72.6324 55.3306 72.4186 56.3881 72.2302 57.4399Z" fill="#444053"/>
<path opacity="0.7" d="M90.1928 115.389C90.131 115.338 83.7975 110.178 78.3808 100.483C75.2153 94.8106 72.9694 88.6719 71.7268 82.2957C70.1715 74.3254 70.3993 65.1065 71.963 56.5146L72.3342 56.8296C68.8328 76.1169 73.9373 91.3318 78.8702 100.188C84.2137 109.789 90.4797 114.897 90.5444 114.947L90.1928 115.389Z" fill="#444053"/>
</g>
<path d="M285.273 212.084C285.273 212.084 273.382 211.367 274.786 219.7C274.786 219.7 274.504 221.171 275.84 221.84C275.84 221.84 275.863 221.221 277.061 221.432C277.487 221.504 277.921 221.525 278.352 221.494C278.935 221.453 279.49 221.224 279.932 220.842C279.932 220.842 283.273 219.461 284.573 213.999C284.573 213.999 285.535 212.807 285.498 212.5L283.49 213.344C283.49 213.344 284.176 214.792 283.636 215.993C283.636 215.993 283.572 213.397 283.186 213.462C283.107 213.476 282.143 213.966 282.143 213.966C282.143 213.966 283.324 216.497 282.424 218.319C282.424 218.319 282.762 215.211 281.766 214.146L280.36 214.972C280.36 214.972 281.738 217.577 280.804 219.7C280.804 219.7 281.043 216.44 280.062 215.172L278.782 216.17C278.782 216.17 280.079 218.738 279.288 220.499C279.288 220.499 279.184 216.705 278.506 216.418C278.506 216.418 277.381 217.405 277.216 217.824C277.216 217.824 278.101 219.686 277.553 220.67C277.553 220.67 277.216 218.139 276.937 218.139C276.937 218.139 275.812 219.812 275.705 220.951C275.705 220.951 275.753 219.244 276.667 217.97C276.024 218.091 275.43 218.398 274.96 218.853C274.96 218.853 275.134 217.669 276.929 217.565C276.929 217.565 277.851 216.297 278.099 216.218C278.099 216.218 276.296 216.069 275.205 216.553C275.205 216.553 276.167 215.428 278.428 215.943L279.69 214.911C279.69 214.911 277.32 214.587 276.316 214.944C276.316 214.944 277.471 213.957 280.031 214.677L281.406 213.856C281.406 213.856 279.387 213.42 278.183 213.575C278.183 213.575 279.454 212.888 281.811 213.631L282.795 213.189C282.795 213.189 281.313 212.908 280.88 212.852C280.447 212.796 280.424 212.686 280.424 212.686C281.361 212.529 282.323 212.637 283.203 212.995C283.203 212.995 285.31 212.216 285.273 212.084Z" fill="#FF5722"/>
<path opacity="0.1" d="M277.083 223.989C281.731 223.989 285.498 223.352 285.498 222.566C285.498 221.78 281.731 221.143 277.083 221.143C272.436 221.143 268.669 221.78 268.669 222.566C268.669 223.352 272.436 223.989 277.083 223.989Z" fill="#FF5722"/>
<path d="M308.081 190.128C308.081 190.128 301.38 189.726 302.175 194.422C302.134 194.66 302.17 194.905 302.276 195.122C302.383 195.338 302.555 195.516 302.769 195.629C302.769 195.629 302.783 195.28 303.458 195.398C303.698 195.44 303.943 195.452 304.186 195.435C304.515 195.412 304.827 195.283 305.075 195.066C305.075 195.066 306.959 194.287 307.693 191.208C307.693 191.208 308.236 190.536 308.214 190.364L307.089 190.848C307.089 190.848 307.474 191.663 307.17 192.341C307.17 192.341 307.134 190.876 306.917 190.912C306.872 190.912 306.329 191.194 306.329 191.194C306.329 191.194 306.993 192.617 306.492 193.649C306.492 193.649 306.684 191.897 306.121 191.298L305.325 191.762C305.325 191.762 306.101 193.23 305.576 194.428C305.576 194.428 305.711 192.591 305.157 191.874L304.437 192.437C304.437 192.437 305.165 193.885 304.718 194.878C304.718 194.878 304.659 192.74 304.276 192.577C304.003 192.809 303.759 193.072 303.548 193.362C303.548 193.362 304.048 194.414 303.739 194.968C303.739 194.968 303.548 193.542 303.393 193.536C303.393 193.536 302.763 194.481 302.699 195.128C302.729 194.528 302.916 193.946 303.241 193.441C302.878 193.509 302.543 193.682 302.277 193.938C302.277 193.938 302.375 193.272 303.402 193.213C303.402 193.213 303.922 192.496 304.06 192.454C304.06 192.454 303.044 192.369 302.429 192.642C302.429 192.642 302.971 192.012 304.245 192.296L304.96 191.717C304.96 191.717 303.621 191.534 303.056 191.736C303.056 191.736 303.708 191.174 305.151 191.585L305.927 191.121C305.33 190.99 304.718 190.937 304.108 190.963C304.108 190.963 304.825 190.578 306.152 190.997L306.715 190.746C306.715 190.746 305.871 190.583 305.635 190.558C305.398 190.533 305.376 190.462 305.376 190.462C305.905 190.374 306.448 190.435 306.945 190.637C306.945 190.637 308.101 190.204 308.081 190.128Z" fill="#FF5722"/>
<path opacity="0.1" d="M303.466 196.841C306.087 196.841 308.211 196.482 308.211 196.039C308.211 195.597 306.087 195.238 303.466 195.238C300.846 195.238 298.722 195.597 298.722 196.039C298.722 196.482 300.846 196.841 303.466 196.841Z" fill="#FF5722"/>
<path d="M268.514 194.206C268.514 194.206 260.42 193.716 261.376 199.389C261.327 199.676 261.369 199.972 261.498 200.234C261.627 200.496 261.835 200.71 262.094 200.846C262.094 200.846 262.094 200.427 262.923 200.564C263.214 200.613 263.509 200.628 263.803 200.609C264.2 200.581 264.577 200.425 264.878 200.165C264.878 200.165 267.153 199.226 268.039 195.505C268.039 195.505 268.694 194.695 268.666 194.487L267.302 195.069C267.302 195.069 267.769 196.056 267.4 196.875C267.4 196.875 267.358 195.106 267.094 195.148C267.04 195.148 266.385 195.488 266.385 195.488C266.385 195.488 267.187 197.206 266.582 198.452C266.582 198.452 266.813 196.337 266.135 195.612L265.173 196.174C265.173 196.174 266.11 197.946 265.474 199.395C265.474 199.395 265.637 197.176 264.971 196.301L264.099 196.979C264.099 196.979 264.982 198.725 264.445 199.926C264.445 199.926 264.374 197.344 263.91 197.147C263.91 197.147 263.148 197.82 263.033 198.095C263.033 198.095 263.635 199.364 263.261 200.033C263.261 200.033 263.033 198.315 262.844 198.306C262.844 198.306 262.085 199.445 262.001 200.227C262.039 199.505 262.264 198.805 262.656 198.196C262.218 198.28 261.815 198.489 261.494 198.798C261.494 198.798 261.613 197.991 262.844 197.921C262.844 197.921 263.472 197.057 263.64 197.004C263.64 197.004 262.414 196.903 261.672 197.232C261.672 197.232 262.324 196.47 263.862 196.816L264.723 196.115C264.723 196.115 263.112 195.893 262.425 196.138C262.425 196.138 263.213 195.466 264.956 195.955L265.893 195.392C265.893 195.392 264.518 195.094 263.697 195.201C263.697 195.201 264.563 194.737 266.166 195.241L266.838 194.965C266.838 194.965 265.831 194.768 265.536 194.737C265.241 194.706 265.226 194.625 265.226 194.625C265.865 194.518 266.52 194.592 267.119 194.836C267.119 194.836 268.539 194.296 268.514 194.206Z" fill="#FF5722"/>
<path opacity="0.1" d="M262.94 202.308C266.104 202.308 268.669 201.875 268.669 201.341C268.669 200.806 266.104 200.373 262.94 200.373C259.776 200.373 257.211 200.806 257.211 201.341C257.211 201.875 259.776 202.308 262.94 202.308Z" fill="#FF5722"/>
<path opacity="0.1" d="M200.823 197.147L172.612 208.062L131.377 224C129.822 221.112 127.527 217.16 124.687 212.469C114.922 196.284 98.7621 171.11 84.3796 148.988C68.1691 124.062 54.2197 103.014 54.2197 103.014L64.319 100.087L146.812 76.1619L200.823 197.147Z" fill="black"/>
<path d="M201.386 195.179L173.175 206.094L131.94 222.031C130.384 219.143 128.09 215.192 125.249 210.501C115.484 194.315 99.3246 169.142 84.9421 147.02C68.7316 122.094 54.7822 101.046 54.7822 101.046L64.8815 98.1181L147.374 74.1932L201.386 195.179Z" fill="white"/>
<path opacity="0.1" d="M201.386 195.179L173.175 206.094C157.418 209.376 141.34 210.854 125.249 210.501C115.484 194.315 99.3246 169.142 84.9421 147.02L64.8815 98.1181L147.374 74.1932L201.386 195.179Z" fill="black"/>
<path d="M222.374 188.39C222.374 188.39 178.546 214.314 113.114 208.464L60.9442 81.2916L85.9434 76.9972L172.362 62.1562L221.396 185.932L222.374 188.39Z" fill="#FF5722"/>
<path opacity="0.1" d="M221.396 185.932C211.074 186.438 199.139 186.39 187.124 184.959C174.125 183.434 161.065 180.279 149.843 174.502C140.472 169.673 132.46 164.428 125.471 158.131C107.3 141.786 96.0538 118.404 85.9546 76.9972L172.373 62.1562L221.396 185.932Z" fill="black"/>
<path d="M253.544 178.822C253.544 178.822 221.224 185.155 188.359 181.255C175.36 179.722 162.285 176.575 151.078 170.798C141.707 165.969 133.695 160.724 126.706 154.427C104.207 134.178 92.3358 103.18 80.0907 40.5516C80.0907 40.5516 133.807 53.5138 186.879 25.1201C186.879 25.1201 204.78 136.847 253.544 178.822Z" fill="white"/>
<path opacity="0.1" d="M188.359 181.255C175.36 179.722 162.285 176.575 151.078 170.798C141.707 165.969 133.695 160.724 126.706 154.427C145.855 152.872 148.609 142.402 148.609 142.402C162.805 164.935 188.359 181.255 188.359 181.255Z" fill="black"/>
<path opacity="0.3" d="M107.869 63.5456C107.869 63.5456 136.723 66.8389 163.731 51.6633L165.581 57.6059C165.581 57.6059 139.744 70.4894 107.869 70.4894V63.5456Z" fill="#FF5722"/>
<path opacity="0.3" d="M107.869 92.8759C107.869 92.8759 136.555 90.5613 168.489 75.127L169.569 77.5962C169.569 77.5962 157.816 92.3865 107.869 96.2507V92.8759Z" fill="black"/>
<path opacity="0.3" d="M111.269 104.317C111.269 104.317 139.955 102.002 171.889 86.5706L172.969 89.0398C172.969 89.0398 161.219 103.844 111.269 107.711V104.317Z" fill="black"/>
<path opacity="0.3" d="M114.379 116.649C114.379 116.649 143.065 114.334 175 98.9028L176.08 101.372C176.08 101.372 164.313 116.168 114.379 120.043V116.649Z" fill="black"/>
<path opacity="0.3" d="M118.072 127.218C118.072 127.218 146.758 124.903 178.693 109.472L179.772 111.941C179.772 111.941 168.022 126.74 118.072 130.615V127.218Z" fill="black"/>
<path opacity="0.1" d="M121.475 138.67C121.475 138.67 150.161 136.355 182.096 120.924L183.176 123.393C183.176 123.393 171.423 138.192 121.475 142.064V138.67Z" fill="black"/>
<path opacity="0.3" d="M181.255 67.4256L173.228 70.1582L175.96 78.1851L183.987 75.4525L181.255 67.4256Z" fill="#FF5722"/>
<path opacity="0.3" d="M185.821 79.3673L177.794 82.0999L180.527 90.1268L188.554 87.3942L185.821 79.3673Z" fill="#FF5722"/>
<path opacity="0.3" d="M193.142 102.344L185.115 105.077L187.847 113.104L195.874 110.371L193.142 102.344Z" fill="#FF5722"/>
<path opacity="0.3" d="M197.342 114.676L189.315 117.409L192.048 125.436L200.075 122.703L197.342 114.676Z" fill="#FF5722"/>
<path opacity="0.3" d="M189.544 91.7727L181.517 94.5052L184.25 102.532L192.277 99.7996L189.544 91.7727Z" fill="#FF5722"/>
<path d="M273.475 126.436L273.174 126.155C273.951 125.997 274.682 125.927 274.682 125.927C274.682 125.927 272.018 116.292 267.527 113.077C265.305 111.488 263.455 108.842 262.147 106.572C259.763 102.468 257.085 98.5422 254.135 94.8249L253.325 93.804L252.976 93.3596C253.462 92.6228 254.059 91.9225 253.991 91.0675C253.99 91.062 253.99 91.0562 253.991 91.0507C253.994 91.0057 253.994 90.9606 253.991 90.9157C253.983 90.81 253.964 90.7054 253.935 90.6035L253.904 90.6513C253.524 89.5489 252.065 89.0623 250.982 88.4548C248.451 87.029 247.368 83.9129 246.828 81.0161C246.406 78.7662 246.057 76.2351 244.297 74.7867C243.172 73.8558 241.642 73.5493 240.509 72.624C239.434 71.7465 238.835 70.4163 238.16 69.1929C237.035 67.1539 235.55 65.2556 233.59 64.0378C231.63 62.82 229.141 62.3504 226.99 63.166C226.166 63.4809 225.417 63.9703 224.602 64.3106C222.577 65.1543 220.257 65.0418 218.252 65.9333C215.782 67.0302 214.176 69.4544 212.708 71.755C211.949 72.9446 210.757 74.6855 210.079 76.4376C210.079 76.3757 210.079 76.3166 210.079 76.2548C209.754 77.0268 209.576 77.8529 209.556 78.6903C209.542 79.0465 209.581 79.4028 209.671 79.7477C209.975 80.8727 210.88 81.4942 211.955 81.9273C212.017 82.2852 212.099 82.6392 212.202 82.9876C212.688 84.5878 213.553 86.0472 214.723 87.2423C215.893 88.4373 217.334 89.3327 218.924 89.8526C219.016 89.8863 219.112 89.9088 219.205 89.937C219.283 90.1596 219.396 90.3684 219.54 90.5557C220.437 91.6806 222.237 91.36 223.407 90.5416C223.454 90.5107 223.499 90.4713 223.544 90.4376C223.552 90.5968 223.569 90.7555 223.595 90.9129C223.62 91.0479 223.64 91.1941 223.668 91.315C224.723 96.9988 227.423 100.067 227.423 100.067C227.423 100.067 227.673 100.444 228.081 101.068C227.867 104.204 229.299 107.062 230.952 109.269C229.526 110.093 226.452 111.708 224.551 111.573C224.551 111.573 217.565 112.475 216.755 112.023C216.643 111.961 216.536 112.045 216.435 112.236C214.511 111.064 208.36 107.683 207.834 112.023C207.359 115.96 212.964 116.463 215.633 116.483C215.512 117.636 215.445 118.559 215.445 118.559L226.922 117.774L232.898 116.894C232.237 117.768 231.492 118.547 230.764 118.927C230.764 118.927 225.361 123.3 224.427 123.34C224.295 123.34 224.253 123.472 224.273 123.683C222 123.683 214.933 124.012 216.893 127.949C218.673 131.518 223.685 129.049 225.952 127.685C226.486 128.722 226.942 129.535 226.942 129.535L236.203 122.94L238.208 121.253C238.888 121.22 239.559 121.09 240.202 120.867C240.202 120.893 240.222 120.918 240.23 120.941C240.302 121.147 240.355 121.36 240.391 121.576C240.953 124.808 239.063 132.345 239.063 132.345C239.063 132.345 234.906 142.945 236.903 144.39C238.9 145.836 237.423 151.936 237.423 151.936C237.772 152.522 238.173 153.076 238.622 153.589C238.833 153.834 239.068 154.057 239.322 154.256C239.229 154.509 239.152 154.767 239.091 155.029C238.786 156.329 238.901 157.692 239.42 158.922C240.793 162.252 239.957 167.078 239.957 167.078L237.263 185.279C235.969 185.082 234.299 184.919 233.677 185.279C232.724 185.816 233.036 188.525 235.25 189.689C234.577 190.204 233.799 190.562 232.971 190.738C231.003 191.188 229.619 191.475 228.708 191.649C228.649 191.649 223.983 190.62 222.785 191.301C221.587 191.981 222.164 195.755 225.572 196.681C228.908 197.583 241.347 198.908 244.93 198.368L245.157 198.329C248.203 197.727 245.529 193.725 245.191 193.238C245.169 193.075 245.149 192.904 245.127 192.718C245.079 192.302 245.037 191.824 245.006 191.312C248.403 191.624 251.755 191.776 253.294 191.545C253.367 191.545 253.434 191.523 253.496 191.509C256.193 190.974 253.831 187.436 253.527 187.009C253.514 186.9 253.5 186.785 253.485 186.663V186.632C253.485 186.55 253.465 186.463 253.457 186.379C253.448 186.295 253.457 186.235 253.434 186.16C253.412 186.084 253.434 186.025 253.415 185.954C253.403 185.816 253.392 185.672 253.381 185.524C253.381 185.465 253.381 185.403 253.381 185.341C253.381 185.229 253.367 185.116 253.361 185.001C253.361 184.939 253.361 184.877 253.361 184.812C253.361 184.644 253.361 184.469 253.344 184.295C253.344 184.247 253.344 184.199 253.344 184.152C253.344 184.011 253.344 183.87 253.344 183.724C253.344 183.657 253.344 183.589 253.344 183.519C253.344 183.37 253.344 183.221 253.344 183.069C253.344 183.018 253.344 182.97 253.344 182.92C253.344 182.731 253.361 182.537 253.372 182.343L253.389 182.135C253.389 181.992 253.412 181.854 253.426 181.708C253.426 181.637 253.426 181.567 253.448 181.497C253.471 181.3 253.496 181.103 253.524 180.903C253.524 180.844 253.544 180.785 253.552 180.726C253.578 180.577 253.603 180.425 253.631 180.273C253.631 180.2 253.659 180.124 253.676 180.048C253.71 179.885 253.746 179.722 253.786 179.559C253.786 179.514 253.806 179.469 253.817 179.424C253.867 179.227 253.924 179.033 253.983 178.839C254.002 178.771 254.025 178.704 254.047 178.636C254.095 178.49 254.146 178.355 254.199 178.203L254.267 178.023C254.343 177.832 254.424 177.644 254.509 177.461C254.531 177.413 254.556 177.365 254.582 177.317C254.652 177.171 254.728 177.036 254.807 176.884L254.902 176.718C255.009 176.538 255.119 176.358 255.24 176.187C258.333 171.777 259.149 163.272 259.073 161.422C258.997 159.571 259.442 155.732 259.996 155.164C260.367 154.785 262.527 151.79 263.818 149.512C264.051 149.095 264.254 148.704 264.414 148.356C265.331 148.038 265.938 147.793 265.938 147.793C265.615 146.612 265.46 145.392 265.477 144.168C265.499 141.775 266.158 138.622 268.874 136.063C272.885 132.283 273.444 128.537 273.498 127.097C273.498 126.996 273.498 126.906 273.498 126.83C273.489 126.565 273.475 126.436 273.475 126.436Z" fill="url(#paint0_linear)"/>
<path d="M262.788 150.023C261.7 151.968 260.478 153.835 259.132 155.612C258.603 156.174 258.179 159.974 258.252 161.799C258.325 163.624 257.552 172.039 254.596 176.398C251.64 180.757 253.159 188.291 253.159 188.291L248.442 189.945H242.775L238.872 188.778L237.842 185.937C237.842 185.937 239.215 185.726 242.623 184.916C243.569 184.724 244.426 184.228 245.063 183.503C245.7 182.779 246.083 181.866 246.153 180.903L248.546 164.189C248.546 164.189 249.252 159.971 248.088 157.051C247.76 156.23 247.624 155.344 247.69 154.462C247.756 153.58 248.023 152.724 248.47 151.961L248.546 151.843C248.546 151.843 252.239 148.927 256.002 147.101C259.335 145.493 262.715 144.728 263.674 147.582C263.798 147.951 263.393 148.898 262.788 150.023Z" fill="#A5636D"/>
<path opacity="0.05" d="M262.788 150.023C261.7 151.968 260.478 153.835 259.132 155.612C258.603 156.174 258.179 159.974 258.252 161.799C258.325 163.624 257.552 172.039 254.596 176.398C252.515 179.472 252.652 184.118 252.908 186.595C253.018 187.633 253.153 188.283 253.153 188.283L248.437 189.937H242.775L238.872 188.778L237.842 185.937C237.842 185.937 238.186 185.884 238.967 185.732C239.749 185.58 240.936 185.321 242.64 184.916C243.583 184.721 244.436 184.223 245.069 183.499C245.703 182.774 246.084 181.863 246.153 180.903L248.546 164.189C248.546 164.189 249.252 159.971 248.088 157.051C247.76 156.23 247.624 155.344 247.69 154.462C247.756 153.58 248.023 152.724 248.47 151.961L248.546 151.843C248.546 151.843 252.239 148.927 256.002 147.101C259.335 145.493 262.715 144.728 263.674 147.582C263.798 147.951 263.393 148.898 262.788 150.023Z" fill="black"/>
<path opacity="0.1" d="M253.159 188.294L248.442 189.948H242.775L238.872 188.778L237.842 185.937C237.842 185.937 238.186 185.884 238.967 185.732C238.912 186.248 239.048 186.767 239.349 187.19C239.65 187.612 240.096 187.91 240.601 188.027L242.817 188.103C243.13 188.103 243.445 188.12 243.754 188.12C246.871 188.121 249.967 187.607 252.917 186.598C253.029 187.636 253.159 188.294 253.159 188.294Z" fill="black"/>
<path d="M242.815 188.581L240.596 188.505C240.596 188.505 238.526 188.066 239.032 185.718C239.032 185.718 235.039 184.812 234.018 185.411C232.997 186.01 233.489 189.315 236.374 190.125C239.187 190.915 249.722 192.077 252.751 191.601L252.945 191.568C255.69 191.005 252.945 187.068 252.945 187.068C249.688 188.183 246.255 188.695 242.815 188.581Z" fill="#BEBED0"/>
<path d="M256.48 150.67C256.331 150.968 256.171 151.278 255.988 151.601C254.596 154.132 252.363 157.319 251.972 157.732C251.376 158.368 250.9 162.654 250.976 164.724C251.052 166.793 250.186 176.277 246.85 181.198C245.143 183.73 244.758 187.175 244.786 189.948C244.795 190.887 244.85 191.826 244.952 192.76C245.076 193.905 245.233 194.619 245.233 194.619L239.912 196.484H233.509L229.102 195.173L227.948 191.956C227.948 191.956 228.334 191.894 229.2 191.722C230.066 191.551 231.416 191.264 233.345 190.808C234.41 190.588 235.374 190.027 236.091 189.21C236.808 188.393 237.239 187.364 237.319 186.28L240.016 167.418C240.016 167.418 240.812 162.651 239.502 159.36C239.007 158.139 238.897 156.796 239.187 155.51C239.344 154.788 239.629 154.1 240.03 153.48C240.03 153.48 241.06 152.67 242.612 151.598C243.298 151.126 244.094 150.603 244.949 150.074C248.707 147.748 253.648 145.374 256.016 147.104C256.538 147.498 256.921 148.049 257.107 148.676C257.203 149.002 256.936 149.742 256.48 150.67Z" fill="#A5636D"/>
<path opacity="0.1" d="M245.219 194.622L239.898 196.487H233.509L229.102 195.176L227.948 191.959C227.948 191.959 228.334 191.897 229.2 191.725C229.145 192.106 229.184 192.495 229.314 192.858C229.445 193.22 229.662 193.545 229.948 193.804C230.392 194.18 230.952 194.391 231.534 194.4L233.551 194.464C233.902 194.464 234.257 194.484 234.608 194.484C238.127 194.483 241.622 193.902 244.952 192.763C245.076 193.908 245.219 194.622 245.219 194.622Z" fill="black"/>
<path d="M233.548 194.943L231.534 194.875C230.952 194.865 230.391 194.655 229.945 194.279C229.433 193.823 228.992 193.036 229.279 191.711C229.279 191.711 224.779 190.69 223.618 191.365C222.456 192.04 223.024 195.772 226.278 196.686C229.464 197.578 241.344 198.888 244.764 198.354L244.98 198.315C248.074 197.679 244.98 193.23 244.98 193.23C241.306 194.492 237.431 195.072 233.548 194.943Z" fill="#BEBED0"/>
<path opacity="0.1" d="M262.788 150.023C260.862 150.695 258.032 151.587 256.48 151.624C256.319 151.63 256.158 151.622 255.999 151.601C254.914 151.452 251.558 151.691 248.482 151.967C247.247 152.076 246.06 152.192 245.079 152.293C243.616 152.445 242.609 152.554 242.609 152.554V151.601C243.296 151.129 244.091 150.605 244.946 150.077C248.704 147.751 253.645 145.377 256.013 147.107C259.346 145.498 262.726 144.733 263.685 147.588C263.798 147.951 263.393 148.898 262.788 150.023Z" fill="black"/>
<path d="M272.032 127.842C271.979 129.268 271.445 132.969 267.614 136.709C262.732 141.476 264.802 148.322 264.802 148.322C264.802 148.322 258.98 150.608 256.469 150.67C256.308 150.676 256.147 150.669 255.988 150.648C254.48 150.437 248.496 150.991 245.056 151.34C243.594 151.491 242.587 151.601 242.587 151.601V131.352L269.566 124.802L272.01 127.235C272.031 127.436 272.039 127.639 272.032 127.842Z" fill="#5C5C8E"/>
<g opacity="0.1">
<path opacity="0.1" d="M243.043 151.351L242.598 151.398V151.612C242.598 151.612 243.605 151.503 245.068 151.351C247.537 151.1 251.308 150.749 253.803 150.645C252.076 150.487 246.372 151.013 243.043 151.351Z" fill="black"/>
<path opacity="0.1" d="M272.021 127.246L269.577 124.81L267.949 125.218L269.996 127.257C270.01 127.46 270.01 127.664 269.996 127.867C269.943 129.29 269.409 132.994 265.578 136.735C260.696 141.499 262.766 148.347 262.766 148.347C262.766 148.347 257.948 150.237 255.189 150.628C255.452 150.627 255.715 150.641 255.977 150.67C256.136 150.692 256.297 150.701 256.458 150.695C258.969 150.634 264.791 148.347 264.791 148.347C264.791 148.347 262.709 141.499 267.603 136.735C271.433 132.994 271.968 129.29 272.021 127.867C272.036 127.66 272.036 127.453 272.021 127.246Z" fill="black"/>
</g>
<path d="M218.119 113.538C218.119 113.538 209.963 107.88 209.364 112.976C208.765 118.072 218.119 117.343 218.119 117.343V113.538Z" fill="#A5636D"/>
<path d="M232.181 109.787C232.181 109.787 227.768 112.706 225.327 112.526C225.327 112.526 218.656 113.42 217.88 112.973C217.104 112.526 216.631 119.441 216.631 119.441L227.6 118.668L234.631 117.594C234.631 117.594 238.146 115.451 238.146 113.603C238.146 111.755 232.181 109.787 232.181 109.787Z" fill="#F7CDDD"/>
<path opacity="0.05" d="M232.181 109.787C232.181 109.787 227.768 112.706 225.327 112.526C225.327 112.526 218.656 113.42 217.88 112.973C217.104 112.526 216.631 119.441 216.631 119.441L227.6 118.668L234.631 117.594C234.631 117.594 238.146 115.451 238.146 113.603C238.146 111.755 232.181 109.787 232.181 109.787Z" fill="black"/>
<path d="M225.71 124.512C225.71 124.512 215.791 124.102 218.012 128.731C220.234 133.36 227.752 127.741 227.752 127.741L225.71 124.512Z" fill="#A5636D"/>
<path d="M235.688 114.672C235.688 114.672 227.647 108.656 228.781 101.33C229.914 94.0036 235.688 106.938 235.688 106.938V114.672Z" fill="#5C5C8E"/>
<path d="M233.466 81.4577C233.463 84.0932 232.438 86.6249 230.606 88.5196C230.16 88.9852 229.668 89.4045 229.138 89.7711C228.126 90.4771 226.996 90.9988 225.803 91.3122C225.328 91.4307 224.846 91.5163 224.36 91.5682C224.011 91.6019 223.66 91.6216 223.302 91.6216C222.162 91.6281 221.029 91.4379 219.953 91.0591C218.192 90.4444 216.634 89.3569 215.45 87.9156C214.265 86.4744 213.501 84.7351 213.239 82.8882C212.977 81.0412 213.229 79.1579 213.967 77.4446C214.704 75.7312 215.899 74.2538 217.42 73.1742C218.941 72.0947 220.73 71.4546 222.591 71.324C224.452 71.1934 226.313 71.5775 227.97 72.4341C229.627 73.2906 231.016 74.5867 231.986 76.1803C232.955 77.7739 233.467 79.6036 233.466 81.4689V81.4577Z" fill="#A5636D"/>
<path opacity="0.1" d="M272.033 127.842C271.121 128.011 269.996 128.315 269.996 128.787C269.996 129.583 257.29 133.872 257.29 133.872C257.29 133.872 257.765 134.98 256.497 136.887C255.229 138.793 244.902 149.75 244.902 149.75L244.935 150.077L245.067 151.339L245.697 157.375C245.697 157.375 241.726 155.946 240.455 156.104C240.045 156.157 239.611 155.893 239.187 155.513C239.344 154.791 239.629 154.103 240.03 153.482C240.03 153.482 241.06 152.673 242.612 151.601V131.352L269.591 124.802L272.035 127.235C272.048 127.437 272.047 127.64 272.033 127.842Z" fill="black"/>
<path d="M273.174 126.723C273.174 126.723 269.996 127.038 269.996 127.834C269.996 128.63 257.29 132.918 257.29 132.918C257.29 132.918 257.765 134.027 256.497 135.933C255.229 137.84 244.901 148.8 244.901 148.8L245.697 156.421C245.697 156.421 241.726 154.993 240.455 155.15C239.893 155.221 239.26 154.697 238.74 154.087C238.31 153.578 237.926 153.031 237.595 152.453C237.595 152.453 239.026 146.415 237.12 144.986C235.213 143.558 239.184 133.076 239.184 133.076C239.184 133.076 240.978 125.623 240.449 122.425C240.417 122.212 240.366 122.001 240.298 121.795C240.298 121.773 240.284 121.748 240.275 121.725C239.15 118.671 226.956 93.039 226.956 93.039C226.963 92.312 227.014 91.586 227.108 90.865C227.133 90.6653 227.167 90.4572 227.203 90.2463C227.265 89.8671 227.348 89.4915 227.451 89.1213C227.515 88.884 227.592 88.6503 227.681 88.4211C228.058 87.4536 228.635 86.7083 229.495 86.6915C229.495 86.6915 230.449 85.6368 232.684 85.3499C234.321 85.1362 236.658 85.35 239.822 86.6915C247.284 89.8638 249.033 90.0269 249.033 90.0269L252.782 94.9486L253.552 95.9582C256.377 99.6424 258.934 103.524 261.205 107.573C262.453 109.823 264.222 112.436 266.343 114.008C270.632 117.194 273.174 126.723 273.174 126.723Z" fill="#F7CDDD"/>
<path opacity="0.1" d="M245.337 108.358C245.337 108.358 255.94 110.979 260.049 117.588L245.337 108.358Z" fill="black"/>
<path opacity="0.1" d="M248.614 119.97C248.614 119.97 250.619 133.433 250.062 134.446C249.505 135.458 248.614 119.97 248.614 119.97Z" fill="black"/>
<path opacity="0.1" d="M247.897 126.88C247.126 127.89 243.996 135.694 243.996 135.694L244.899 148.8L245.694 156.421C245.694 156.421 241.726 154.993 240.455 155.15C239.893 155.22 239.257 154.697 238.74 154.087C239.564 149.624 241.327 140.284 241.645 140.104C242.064 139.865 244.21 132.362 244.322 130.261C244.435 128.16 247.416 123.477 247.416 123.477C247.416 123.477 248.673 125.871 247.897 126.88Z" fill="black"/>
<path opacity="0.1" d="M244.902 114.016C244.705 114.61 244.401 118.066 244.401 118.066C244.182 121.109 241.87 122.105 240.45 122.425C240.417 122.212 240.366 122.001 240.298 121.795C239.344 119.098 226.956 93.0501 226.956 93.0501C226.969 91.7286 227.135 90.413 227.451 89.1297C230.148 88.3366 234.417 89.5572 234.417 89.5572C235.652 89.3941 239.679 97.4009 239.679 97.4009C239.679 97.4009 242.362 103.532 242.657 104.367C242.953 105.202 242.657 106.572 242.775 107.05C242.893 107.528 244.148 107.939 244.325 108.597C244.502 109.255 244.387 110.566 244.505 110.799C244.623 111.032 245.101 113.42 244.902 114.016Z" fill="black"/>
<path d="M243.948 113.538C243.751 114.135 243.447 117.588 243.447 117.588C243.267 120.119 241.636 121.244 240.275 121.725C239.661 121.945 239.019 122.072 238.368 122.105L236.453 123.77L227.608 130.28C227.608 130.28 224.312 124.186 225.206 124.152C226.101 124.119 231.259 119.788 231.259 119.788C232.836 118.944 234.417 116.131 235.151 114.686C235.109 114.514 235.077 114.339 235.055 114.163C234.737 111.466 228.066 101.139 228.066 101.139C228.066 101.139 225.488 98.1041 224.484 92.4822C224.455 92.3528 224.436 92.2206 224.41 92.0856C224.382 91.9107 224.365 91.734 224.36 91.5569C224.239 89.3942 225.814 88.6067 227.681 88.4211C228.657 88.3437 229.637 88.3738 230.606 88.5111C231.571 88.6326 232.527 88.8206 233.466 89.0736C234.265 88.9667 236.234 92.2881 237.524 94.6421C238.219 95.9189 238.72 96.9144 238.72 96.9144C238.72 96.9144 241.403 103.048 241.698 103.881C241.993 104.713 241.698 106.088 241.816 106.564C241.934 107.039 243.189 107.455 243.366 108.113C243.543 108.771 243.428 110.082 243.546 110.315C243.664 110.549 244.148 112.942 243.948 113.538Z" fill="#F7CDDD"/>
<path opacity="0.1" d="M254.208 99.7971C252.52 101.521 249.795 101.527 247.607 100.641C245.419 99.7549 243.566 98.1687 241.538 96.9341C240.222 96.1298 238.827 95.4717 237.53 94.642C237.339 94.5183 237.153 94.3945 236.968 94.2652C235.472 93.2077 234.175 91.8493 232.625 90.8903C231.589 90.2009 230.382 89.8116 229.138 89.7654C228.565 89.7602 227.998 89.8792 227.476 90.1141C227.379 90.1535 227.285 90.1995 227.195 90.2519C226.685 90.5445 226.212 90.8987 225.789 91.3066C225.35 91.7003 224.931 92.1193 224.47 92.4878C224.441 92.3584 224.422 92.2262 224.396 92.0912C224.368 91.9163 224.351 91.7396 224.346 91.5625C223.997 91.5962 223.646 91.6159 223.288 91.6159C222.148 91.6224 221.015 91.4322 219.939 91.0534C219.939 91.0113 219.939 90.9691 219.913 90.9269C219.534 88.9245 218.848 86.804 217.236 85.679C216.302 85.0265 214.812 84.7594 213.518 84.2728C213.07 82.7123 213.002 81.067 213.32 79.4748C213.638 77.8826 214.333 76.3898 215.347 75.1214C216.36 73.853 217.663 72.8459 219.146 72.1844C220.629 71.5229 222.249 71.2263 223.87 71.3193C225.491 71.4124 227.066 71.8925 228.463 72.7193C229.86 73.5462 231.039 74.6958 231.901 76.0719C232.763 77.448 233.282 79.0105 233.416 80.6287C233.55 82.2468 233.294 83.8735 232.67 85.3725C234.307 85.1587 236.644 85.3725 239.808 86.714C247.269 89.8863 249.019 90.0494 249.019 90.0494L252.768 94.9711C252.363 95.5898 251.904 96.2001 251.862 96.9229C251.792 98.2475 253.083 99.1728 254.208 99.7971Z" fill="black"/>
<path d="M217.247 84.72C218.859 85.8449 219.545 87.9627 219.928 89.9623C220.046 90.5866 220.158 91.2447 220.541 91.7397C221.384 92.8477 223.117 92.5356 224.233 91.7397C225.35 90.9438 226.23 89.7373 227.476 89.1748C229.13 88.4267 231.076 88.9723 232.625 89.9426C234.175 90.9128 235.472 92.2712 236.968 93.3174C238.416 94.3383 240.03 95.0667 241.538 95.9864C243.566 97.221 245.419 98.8156 247.607 99.6931C249.795 100.571 252.529 100.568 254.205 98.8493C253.08 98.225 251.789 97.3025 251.876 95.9639C251.963 94.6252 253.521 93.6268 253.417 92.2543C253.313 90.8819 251.699 90.3447 250.54 89.6698C248.122 88.2636 247.089 85.17 246.572 82.3154C246.17 80.0824 245.838 77.5878 244.17 76.1535C243.093 75.231 241.639 74.9301 240.554 74.0161C239.527 73.1471 238.956 71.8337 238.304 70.6216C237.226 68.6051 235.812 66.7292 233.942 65.5227C232.071 64.3162 229.692 63.8353 227.639 64.6621C226.852 64.9743 226.134 65.458 225.358 65.7871C223.423 66.6308 221.21 66.5099 219.295 67.3901C216.935 68.4757 215.402 70.8719 213.999 73.1471C212.812 75.096 210.458 78.5328 211.125 81.0639C211.788 83.6372 215.498 83.4994 217.247 84.72Z" fill="#4C3E42"/>
<g opacity="0.1">
<path opacity="0.1" d="M253.415 92.0998C253.406 91.9953 253.388 91.8917 253.361 91.7904C252.934 92.4626 252.402 93.115 252.352 93.9025C252.341 94.0846 252.356 94.2674 252.397 94.4453C252.872 93.6887 253.482 92.9772 253.415 92.0998Z" fill="black"/>
<path opacity="0.1" d="M248.082 97.6401C245.894 96.7627 244.044 95.168 242.016 93.9334C240.506 93.0138 238.891 92.2853 237.443 91.2645C235.947 90.207 234.65 88.8486 233.101 87.8896C231.551 86.9306 229.608 86.3737 227.951 87.119C226.705 87.6815 225.828 88.8767 224.709 89.6867C223.589 90.4967 221.874 90.8117 221.016 89.6867C220.634 89.1917 220.521 88.5336 220.403 87.9093C220.023 85.9097 219.334 83.792 217.726 82.667C215.973 81.4436 212.264 81.5814 211.592 79.0109C211.48 78.5511 211.45 78.0749 211.505 77.6047C211.074 78.7522 210.852 79.9053 211.114 80.9093C211.789 83.491 215.498 83.3532 217.247 84.5654C218.859 85.6903 219.545 87.8109 219.928 89.8105C220.046 90.4348 220.158 91.0929 220.538 91.5879C221.382 92.696 223.114 92.3838 224.233 91.5738C225.353 90.7639 226.227 89.5714 227.476 89.0089C229.13 88.2636 231.076 88.8092 232.625 89.7795C234.175 90.7498 235.472 92.1082 236.968 93.1544C238.416 94.1781 240.03 94.9037 241.538 95.8233C243.566 97.0608 245.419 98.6554 247.607 99.5329C249.795 100.41 252.529 100.405 254.205 98.6891C253.771 98.4562 253.36 98.1842 252.976 97.8764C251.451 98.436 249.632 98.2617 248.082 97.6401Z" fill="black"/>
</g>
<path d="M198.306 116.877L220.805 108.473C221.068 108.375 221.348 108.329 221.629 108.338C221.91 108.348 222.186 108.413 222.442 108.529C222.698 108.646 222.928 108.812 223.119 109.017C223.311 109.223 223.46 109.464 223.558 109.728C223.657 109.991 223.702 110.271 223.692 110.552C223.682 110.833 223.617 111.109 223.5 111.365C223.383 111.62 223.217 111.85 223.012 112.042C222.806 112.234 222.565 112.383 222.301 112.481L199.802 120.887L194.982 120.403L198.306 116.877Z" fill="#5C5C8E"/>
<path opacity="0.1" d="M222.875 109.053C223.073 109.585 223.052 110.174 222.817 110.691C222.581 111.208 222.15 111.61 221.618 111.809L199.119 120.212L195.496 119.849L194.976 120.412L199.797 120.896L222.296 112.489C222.559 112.391 222.8 112.242 223.006 112.05C223.212 111.859 223.378 111.629 223.494 111.373C223.611 111.117 223.676 110.841 223.686 110.56C223.696 110.279 223.651 109.999 223.553 109.736C223.388 109.293 223.08 108.917 222.678 108.667C222.755 108.789 222.821 108.918 222.875 109.053Z" fill="white"/>
<path d="M198.306 116.877L199.805 120.887L195.848 120.491L194.982 120.403L196.166 119.149L198.306 116.877Z" fill="#EFC8C4"/>
<path d="M196.163 119.149C196.256 119.217 196.335 119.303 196.394 119.402C196.431 119.461 196.451 119.528 196.451 119.598C196.451 119.667 196.431 119.735 196.394 119.793C196.329 119.856 196.255 119.908 196.174 119.948C196.083 120.008 196.007 120.088 195.951 120.182C195.896 120.276 195.862 120.382 195.854 120.491L194.987 120.403L196.163 119.149Z" fill="#727A9C"/>
<path d="M178.667 73.4227L174.873 71.5721C174.819 71.5457 174.771 71.5089 174.731 71.4638C174.691 71.4187 174.66 71.3662 174.641 71.3093C174.621 71.2523 174.613 71.1921 174.617 71.132C174.621 71.0719 174.636 71.0131 174.662 70.959L175.065 70.1322C175.091 70.0778 175.127 70.0292 175.172 69.9891C175.217 69.949 175.27 69.9182 175.327 69.8986C175.384 69.879 175.444 69.8709 175.505 69.8748C175.565 69.8787 175.624 69.8945 175.678 69.9213L178.234 71.1672L180.903 65.6943C180.956 65.585 181.051 65.5013 181.166 65.4613C181.281 65.4212 181.406 65.4282 181.516 65.4805L182.343 65.8855C182.397 65.9116 182.446 65.9483 182.486 65.9933C182.526 66.0384 182.557 66.091 182.577 66.148C182.596 66.205 182.604 66.2654 182.6 66.3256C182.597 66.3858 182.581 66.4446 182.554 66.4986L179.28 73.2117C179.254 73.2659 179.217 73.3142 179.172 73.3541C179.127 73.394 179.074 73.4246 179.018 73.4442C178.961 73.4638 178.9 73.472 178.84 73.4683C178.78 73.4646 178.721 73.4491 178.667 73.4227Z" fill="#3ACC6C"/>
<path d="M186.955 97.0943L183.161 95.2438C183.107 95.2174 183.059 95.1806 183.019 95.1355C182.979 95.0904 182.949 95.0378 182.929 94.9809C182.909 94.924 182.901 94.8637 182.905 94.8037C182.909 94.7436 182.924 94.6848 182.951 94.6307L183.353 93.8038C183.407 93.6944 183.502 93.6107 183.617 93.5712C183.733 93.5316 183.859 93.5394 183.969 93.5929L186.522 94.8388L189.188 89.3603C189.242 89.251 189.336 89.1673 189.451 89.1273C189.566 89.0872 189.692 89.0942 189.801 89.1466L190.625 89.5515C190.68 89.5777 190.728 89.6143 190.769 89.6593C190.809 89.7043 190.84 89.7568 190.86 89.8137C190.879 89.8707 190.888 89.931 190.884 89.9912C190.881 90.0514 190.866 90.1104 190.839 90.1646L187.566 96.8778C187.511 96.9867 187.416 97.0699 187.301 97.1094C187.186 97.1488 187.06 97.1414 186.95 97.0887L186.955 97.0943Z" fill="#3ACC6C"/>
<path d="M183.235 85.4259L179.441 83.5753C179.331 83.5219 179.248 83.4276 179.208 83.3128C179.168 83.198 179.175 83.072 179.227 82.9622L179.632 82.1354C179.658 82.081 179.695 82.0324 179.74 81.9923C179.785 81.9522 179.837 81.9214 179.894 81.9018C179.951 81.8822 180.012 81.8741 180.072 81.878C180.132 81.8819 180.191 81.8977 180.245 81.9245L182.801 83.1703L185.47 77.689C185.497 77.6349 185.534 77.5865 185.579 77.5467C185.624 77.5068 185.676 77.4762 185.733 77.4566C185.79 77.437 185.85 77.4288 185.91 77.4325C185.971 77.4362 186.029 77.4517 186.083 77.4781L186.91 77.8803C187.019 77.9347 187.102 78.0298 187.142 78.145C187.181 78.2603 187.174 78.3864 187.121 78.4962L183.845 85.215C183.818 85.2691 183.782 85.3174 183.736 85.3573C183.691 85.3972 183.639 85.4278 183.582 85.4474C183.525 85.467 183.465 85.4752 183.405 85.4715C183.345 85.4678 183.286 85.4523 183.232 85.4259H183.235Z" fill="#3ACC6C"/>
<path d="M190.555 107.781L186.761 105.931C186.707 105.905 186.659 105.868 186.619 105.823C186.579 105.778 186.548 105.725 186.529 105.668C186.509 105.611 186.501 105.551 186.505 105.491C186.508 105.431 186.524 105.372 186.55 105.318L186.953 104.491C186.979 104.437 187.016 104.389 187.061 104.349C187.106 104.309 187.158 104.278 187.215 104.259C187.272 104.239 187.333 104.231 187.393 104.234C187.453 104.238 187.512 104.254 187.566 104.28L190.122 105.526L192.791 100.053C192.845 99.9436 192.94 99.8598 193.055 99.8198C193.17 99.7798 193.297 99.7868 193.407 99.8393L194.231 100.244C194.285 100.27 194.334 100.307 194.374 100.352C194.414 100.397 194.445 100.45 194.465 100.507C194.484 100.564 194.492 100.624 194.488 100.684C194.485 100.745 194.469 100.803 194.442 100.857L191.171 107.571C191.117 107.68 191.022 107.763 190.906 107.802C190.791 107.842 190.665 107.834 190.555 107.781Z" fill="#3ACC6C"/>
<path d="M48.7159 180.442C48.7159 180.442 50.3893 182.63 47.9453 185.932C45.5014 189.233 43.4821 192.023 44.2892 194.088C44.2892 194.088 47.9791 187.954 50.9799 187.869C53.9807 187.785 52.0176 184.132 48.7159 180.442Z" fill="#3ACC6C"/>
<path opacity="0.1" d="M48.716 180.442C48.8625 180.653 48.978 180.884 49.0591 181.128C51.9868 184.57 53.5589 187.782 50.7325 187.878C48.1085 187.951 44.9615 192.642 44.2106 193.826C44.2332 193.922 44.2623 194.016 44.2978 194.107C44.2978 194.107 47.9876 187.973 50.9884 187.889C53.9892 187.805 52.0177 184.132 48.716 180.442Z" fill="black"/>
<path d="M51.8263 183.232C51.8263 184 51.7391 184.638 51.6323 184.638C51.5254 184.638 51.441 184.014 51.441 183.232C51.441 182.45 51.5479 182.824 51.6548 182.824C51.7616 182.824 51.8263 182.461 51.8263 183.232Z" fill="#FFD037"/>
<path d="M52.8923 184.149C52.2173 184.517 51.6267 184.742 51.5761 184.646C51.5255 184.551 52.0317 184.18 52.7011 183.803C53.3704 183.426 53.1089 183.701 53.1595 183.803C53.2101 183.904 53.5701 183.78 52.8923 184.149Z" fill="#FFD037"/>
<path d="M39.8794 180.442C39.8794 180.442 38.2089 182.63 40.6528 185.932C43.0968 189.233 45.1133 192.023 44.3089 194.088C44.3089 194.088 40.6219 187.954 37.6183 187.869C34.6147 187.785 36.5777 184.132 39.8794 180.442Z" fill="#3ACC6C"/>
<path opacity="0.1" d="M39.8794 180.442C39.7346 180.654 39.6201 180.885 39.5391 181.128C36.6086 184.57 35.0393 187.782 37.8657 187.878C40.4869 187.951 43.6339 192.642 44.3876 193.826C44.3641 193.922 44.334 194.016 44.2976 194.107C44.2976 194.107 40.6106 187.948 37.6014 187.864C34.5921 187.779 36.5777 184.132 39.8794 180.442Z" fill="black"/>
<path d="M36.7717 183.232C36.7717 184 36.8561 184.638 36.963 184.638C37.0698 184.638 37.157 184.014 37.157 183.232C37.157 182.45 37.0501 182.824 36.9433 182.824C36.8364 182.824 36.7717 182.461 36.7717 183.232Z" fill="#FFD037"/>
<path d="M35.7031 184.149C36.3809 184.517 36.9687 184.742 37.0193 184.646C37.0699 184.551 36.5637 184.18 35.8944 183.803C35.225 183.426 35.4838 183.701 35.4332 183.803C35.3825 183.904 35.0282 183.78 35.7031 184.149Z" fill="#FFD037"/>
<path opacity="0.1" d="M44.3006 210.816C53.9601 210.816 61.7907 209.614 61.7907 208.133C61.7907 206.651 53.9601 205.45 44.3006 205.45C34.641 205.45 26.8104 206.651 26.8104 208.133C26.8104 209.614 34.641 210.816 44.3006 210.816Z" fill="#FF5722"/>
<path d="M53.3001 191.135L53.2157 191.818L53.1004 192.783L53.0498 193.185L52.9345 194.149L52.8811 194.552L52.7657 195.516L51.4271 206.484C51.3061 207.463 49.7059 208.228 47.771 208.228H40.8216C38.8895 208.228 37.2921 207.463 37.1655 206.484L35.8268 195.516L35.7087 194.552L35.6609 194.149L35.54 193.185L35.4922 192.783L35.374 191.818L35.2897 191.135C35.225 190.572 36.0884 190.111 37.1824 190.111H51.4102C52.507 190.111 53.3704 190.581 53.3001 191.135Z" fill="#65617D"/>
<path d="M53.2185 191.818L53.1004 192.783H35.4978L35.3824 191.818H53.2185Z" fill="#9D9CB5"/>
<path d="M53.0526 193.185L52.9344 194.15H35.6665L35.5483 193.185H53.0526Z" fill="#9D9CB5"/>
<path d="M52.8839 194.552L52.7658 195.516H35.8325L35.7144 194.552H52.8839Z" fill="#9D9CB5"/>
</g>
</svg>
